<?xml version="1.0" standalone="no"?>
<!DOCTYPE svg PUBLIC "-//W3C//DTD SVG 20010904//EN"
 "http://www.w3.org/TR/2001/REC-SVG-20010904/DTD/svg10.dtd">
<svg version="1.0" xmlns="http://www.w3.org/2000/svg"
 width="512.000000pt" height="512.000000pt" viewBox="0 0 512.000000 512.000000"
 preserveAspectRatio="xMidYMid meet">
<metadata>
Created by potrace 1.14, written by Peter Selinger 2001-2017
</metadata>
<g transform="translate(0.000000,512.000000) scale(0.100000,-0.100000)"
fill="#000000" stroke="none">
<path d="M0 2560 l0 -2560 2560 0 2560 0 0 2560 0 2560 -2560 0 -2560 0 0
-2560z m720 2275 c0 -20 5 -25 25 -25 20 0 25 5 25 25 0 24 2 25 75 25 73 0
75 -1 75 -25 0 -25 1 -25 80 -25 79 0 80 0 80 -25 0 -24 2 -25 75 -25 l75 0 0
-75 0 -75 50 0 c47 0 50 -2 50 -25 0 -20 5 -25 25 -25 20 0 25 -5 25 -25 0
-20 -5 -25 -25 -25 -21 0 -25 -5 -25 -30 l0 -30 75 0 c73 0 75 -1 75 -25 0
-21 5 -25 30 -25 25 0 30 -4 30 -25 0 -24 -3 -25 -55 -25 -52 0 -55 -1 -55
-25 0 -24 3 -25 55 -25 52 0 55 -1 55 -25 0 -20 5 -25 25 -25 20 0 25 -5 25
-25 0 -20 5 -25 25 -25 20 0 25 -5 25 -25 0 -20 5 -25 25 -25 20 0 25 -5 25
-25 0 -20 5 -25 25 -25 24 0 25 -3 25 -55 0 -52 1 -55 25 -55 l25 0 0 -205 0
-205 -25 0 c-23 0 -25 -3 -25 -50 0 -47 -2 -50 -25 -50 -20 0 -25 -5 -25 -25
0 -20 -5 -25 -25 -25 -20 0 -25 -5 -25 -25 0 -25 -1 -25 -80 -25 -79 0 -80 0
-80 -25 l0 -25 -125 0 -125 0 0 -25 0 -25 -205 0 -205 0 0 25 c0 23 -3 25 -50
25 l-50 0 0 75 c0 73 -1 75 -25 75 -20 0 -25 -5 -25 -25 0 -21 -5 -25 -30 -25
-25 0 -30 4 -30 25 0 21 5 25 30 25 l30 0 0 205 0 205 25 0 c20 0 25 5 25 25
0 20 -5 25 -25 25 -25 0 -25 1 -25 80 0 79 0 80 25 80 24 0 25 2 25 75 0 73 1
75 25 75 20 0 25 5 25 25 0 20 -5 25 -25 25 -20 0 -25 5 -25 25 0 20 5 25 25
25 20 0 25 5 25 25 0 20 -5 25 -25 25 -24 0 -25 3 -25 55 0 52 -1 55 -25 55
-20 0 -25 5 -25 25 0 20 5 25 25 25 20 0 25 5 25 25 0 20 -5 25 -25 25 -20 0
-25 5 -25 25 0 21 -5 25 -30 25 l-30 0 0 100 0 100 55 0 c52 0 55 -1 55 -25z
m3480 -50 c0 -20 5 -25 25 -25 20 0 25 -5 25 -25 0 -20 5 -25 25 -25 20 0 25
-5 25 -25 0 -23 3 -25 50 -25 l50 0 0 -50 c0 -47 2 -50 25 -50 20 0 25 -5 25
-25 0 -21 5 -25 30 -25 l30 0 0 -80 c0 -79 0 -80 25 -80 20 0 25 -5 25 -25 0
-20 5 -25 25 -25 23 0 25 -3 25 -50 0 -47 2 -50 25 -50 25 0 25 -1 25 -80 0
-79 0 -80 25 -80 23 0 25 -3 25 -50 l0 -50 -130 0 -130 0 0 -25 0 -25 105 0
105 0 0 -50 c0 -47 2 -50 25 -50 20 0 25 -5 25 -25 0 -20 -5 -25 -25 -25 -23
0 -25 -3 -25 -50 0 -47 -2 -50 -25 -50 -25 0 -25 -1 -25 -80 0 -79 0 -80 -25
-80 l-25 0 0 -100 0 -100 -25 0 c-24 0 -25 -3 -25 -55 0 -54 0 -55 -30 -55
-25 0 -30 -4 -30 -25 0 -20 -5 -25 -25 -25 -20 0 -25 -5 -25 -25 0 -20 -5 -25
-25 -25 -20 0 -25 -5 -25 -25 0 -20 -5 -25 -25 -25 -20 0 -25 -5 -25 -25 0
-20 -5 -25 -25 -25 -20 0 -25 -5 -25 -25 0 -24 -2 -25 -75 -25 -73 0 -75 -1
-75 -25 0 -25 -1 -25 -80 -25 l-80 0 0 50 c0 47 -2 50 -25 50 -24 0 -25 -2
-25 -75 l0 -75 -50 0 c-49 0 -50 -1 -50 -30 l0 -30 -105 0 -105 0 0 -25 0 -25
-150 0 -150 0 0 25 c0 20 -5 25 -25 25 -21 0 -25 5 -25 30 0 27 -3 30 -30 30
-29 0 -30 1 -30 50 0 47 -2 50 -25 50 -20 0 -25 -5 -25 -25 0 -24 -2 -25 -75
-25 -73 0 -75 -1 -75 -25 0 -23 3 -25 50 -25 49 0 50 -1 50 -30 0 -29 1 -30
50 -30 47 0 50 -2 50 -25 0 -21 5 -25 30 -25 29 0 30 -1 30 -50 0 -49 -1 -50
-30 -50 -25 0 -30 -4 -30 -25 0 -21 5 -25 30 -25 l30 0 0 -100 0 -100 -30 0
c-27 0 -30 -3 -30 -30 0 -27 3 -30 30 -30 29 0 30 -1 30 -50 0 -49 -1 -50 -30
-50 -25 0 -30 -4 -30 -25 0 -21 5 -25 30 -25 25 0 30 -4 30 -25 0 -21 -5 -25
-30 -25 -25 0 -30 -4 -30 -25 0 -21 5 -25 30 -25 l30 0 0 -130 0 -130 -30 0
c-25 0 -30 -4 -30 -25 0 -21 5 -25 30 -25 l30 0 0 -130 0 -130 -30 0 c-25 0
-30 -4 -30 -25 0 -21 5 -25 30 -25 25 0 30 -4 30 -25 0 -21 -5 -25 -30 -25
-25 0 -30 -4 -30 -25 0 -21 5 -25 30 -25 25 0 30 -4 30 -25 0 -21 -5 -25 -30
-25 -25 0 -30 -4 -30 -25 0 -21 5 -25 30 -25 29 0 30 -1 30 -50 0 -49 -1 -50
-30 -50 l-30 0 0 -80 c0 -79 0 -80 -25 -80 -20 0 -25 -5 -25 -25 0 -20 5 -25
25 -25 20 0 25 -5 25 -25 0 -20 -5 -25 -25 -25 -20 0 -25 -5 -25 -25 0 -24 3
-25 55 -25 52 0 55 -1 55 -25 0 -24 -3 -25 -55 -25 l-55 0 0 -50 c0 -47 -2
-50 -25 -50 -21 0 -25 -5 -25 -30 0 -29 -1 -30 -50 -30 -47 0 -50 -2 -50 -25
0 -20 -5 -25 -25 -25 -20 0 -25 -5 -25 -25 0 -23 -3 -25 -50 -25 -47 0 -50 -2
-50 -25 0 -25 -1 -25 -80 -25 -79 0 -80 0 -80 25 0 20 5 25 25 25 20 0 25 5
25 25 0 24 -2 25 -75 25 l-75 0 0 55 c0 52 -1 55 -25 55 -20 0 -25 5 -25 25 0
20 5 25 25 25 23 0 25 3 25 50 0 47 -2 50 -25 50 -20 0 -25 5 -25 25 0 20 5
25 25 25 23 0 25 3 25 50 0 47 -2 50 -25 50 -20 0 -25 5 -25 25 0 20 -5 25
-25 25 -21 0 -25 5 -25 30 0 25 4 30 25 30 24 0 25 2 25 75 0 73 -1 75 -25 75
-20 0 -25 5 -25 25 0 20 5 25 25 25 20 0 25 5 25 25 0 20 -5 25 -25 25 -23 0
-25 3 -25 50 0 47 2 50 25 50 24 0 25 3 25 55 0 52 -1 55 -25 55 -20 0 -25 5
-25 25 0 20 5 25 25 25 20 0 25 5 25 25 0 20 -5 25 -25 25 -20 0 -25 5 -25 25
0 20 5 25 25 25 23 0 25 3 25 50 0 47 -2 50 -25 50 l-25 0 0 155 0 155 25 0
c20 0 25 5 25 25 0 20 -5 25 -25 25 l-25 0 0 105 0 105 25 0 c20 0 25 5 25 25
0 20 -5 25 -25 25 l-25 0 0 100 0 100 25 0 c20 0 25 5 25 25 0 20 -5 25 -25
25 -20 0 -25 5 -25 25 0 20 5 25 25 25 20 0 25 5 25 25 0 20 -5 25 -25 25
l-25 0 0 105 0 105 25 0 25 0 0 100 0 100 25 0 c21 0 25 5 25 30 0 25 4 30 25
30 20 0 25 5 25 25 0 23 3 25 50 25 47 0 50 2 50 25 0 25 1 25 80 25 79 0 80
0 80 25 0 23 3 25 50 25 47 0 50 2 50 25 0 23 3 25 50 25 47 0 50 2 50 25 0
23 3 25 50 25 47 0 50 2 50 25 l0 25 155 0 155 0 0 25 0 25 -125 0 -125 0 0
55 c0 54 0 55 -30 55 -25 0 -30 4 -30 25 0 25 1 25 80 25 79 0 80 0 80 25 0
23 -3 25 -50 25 -47 0 -50 2 -50 25 0 20 5 25 25 25 20 0 25 5 25 25 0 20 -5
25 -25 25 -20 0 -25 5 -25 25 0 21 -5 25 -30 25 -25 0 -30 4 -30 25 0 21 5 25
30 25 25 0 30 4 30 25 l0 25 125 0 125 0 0 80 c0 79 0 80 25 80 20 0 25 5 25
25 l0 25 130 0 130 0 0 25 c0 20 5 25 25 25 23 0 25 3 25 50 0 47 2 50 25 50
20 0 25 5 25 25 0 20 5 25 25 25 21 0 25 5 25 30 0 25 4 30 25 30 23 0 25 3
25 50 0 47 2 50 25 50 23 0 25 3 25 50 0 49 1 50 30 50 29 0 30 -1 30 -50 0
-47 2 -50 25 -50 l25 0 0 100 0 100 25 0 c20 0 25 -5 25 -25z m-2000 -50 c0
-20 -5 -25 -25 -25 -20 0 -25 5 -25 25 0 20 5 25 25 25 20 0 25 -5 25 -25z
m210 -25 c0 -47 -2 -50 -25 -50 -20 0 -25 5 -25 25 0 21 -5 25 -30 25 -25 0
-30 -4 -30 -25 0 -20 -5 -25 -25 -25 -23 0 -25 3 -25 50 l0 50 80 0 80 0 0
-50z m100 25 c0 -20 -5 -25 -25 -25 -20 0 -25 5 -25 25 0 20 5 25 25 25 20 0
25 -5 25 -25z m100 0 c0 -20 5 -25 25 -25 20 0 25 5 25 25 0 20 5 25 25 25 20
0 25 -5 25 -25 0 -20 5 -25 25 -25 20 0 25 5 25 25 0 21 5 25 30 25 25 0 30
-4 30 -25 0 -20 5 -25 25 -25 20 0 25 5 25 25 0 20 5 25 25 25 20 0 25 -5 25
-25 0 -20 -5 -25 -25 -25 -20 0 -25 -5 -25 -25 0 -20 -5 -25 -25 -25 -20 0
-25 5 -25 25 0 21 -5 25 -30 25 -25 0 -30 -4 -30 -25 l0 -25 -100 0 -100 0 0
50 c0 47 2 50 25 50 20 0 25 -5 25 -25z m-510 -50 c0 -20 -5 -25 -25 -25 -20
0 -25 -5 -25 -25 0 -23 -3 -25 -50 -25 -47 0 -50 2 -50 25 0 23 3 25 50 25 47
0 50 2 50 25 0 20 5 25 25 25 20 0 25 -5 25 -25z m-360 -125 c0 -47 -2 -50
-25 -50 -21 0 -25 -5 -25 -30 0 -25 -4 -30 -25 -30 -21 0 -25 5 -25 30 0 29
-1 30 -50 30 -47 0 -50 2 -50 25 0 23 3 25 50 25 47 0 50 -2 50 -25 0 -20 5
-25 25 -25 23 0 25 3 25 50 0 47 2 50 25 50 23 0 25 -3 25 -50z m150 25 c0
-20 -5 -25 -25 -25 -20 0 -25 5 -25 25 0 20 5 25 25 25 20 0 25 -5 25 -25z
m-1280 -1385 c0 -25 -4 -30 -25 -30 -20 0 -25 -5 -25 -25 0 -20 -5 -25 -25
-25 -24 0 -25 3 -25 55 l0 55 50 0 c49 0 50 -1 50 -30z m0 -205 c0 -20 -5 -25
-25 -25 -20 0 -25 5 -25 25 0 20 5 25 25 25 20 0 25 -5 25 -25z m4000 0 c0
-23 -3 -25 -50 -25 -47 0 -50 2 -50 25 0 23 3 25 50 25 47 0 50 -2 50 -25z
m-4050 -180 l0 -105 -50 0 c-47 0 -50 2 -50 25 0 20 5 25 25 25 24 0 25 3 25
55 0 52 -1 55 -25 55 -20 0 -25 5 -25 25 0 23 3 25 50 25 l50 0 0 -105z m4050
80 c0 -20 -5 -25 -25 -25 -20 0 -25 -5 -25 -25 0 -20 5 -25 25 -25 l25 0 0
-105 0 -105 -50 0 c-47 0 -50 2 -50 25 0 20 5 25 25 25 20 0 25 5 25 25 0 20
-5 25 -25 25 l-25 0 0 105 0 105 50 0 c47 0 50 -2 50 -25z m-4050 -260 c0 -20
-5 -25 -25 -25 -20 0 -25 -5 -25 -25 0 -20 -5 -25 -25 -25 -20 0 -25 5 -25 25
0 20 5 25 25 25 20 0 25 5 25 25 0 20 5 25 25 25 20 0 25 -5 25 -25z m0 -175
c0 -47 -2 -50 -25 -50 -23 0 -25 3 -25 50 0 47 2 50 25 50 23 0 25 -3 25 -50z
m4000 25 c0 -20 5 -25 25 -25 20 0 25 -5 25 -25 0 -20 -5 -25 -25 -25 -24 0
-25 -3 -25 -55 0 -52 -1 -55 -25 -55 -24 0 -25 3 -25 55 0 52 1 55 25 55 20 0
25 5 25 25 0 20 -5 25 -25 25 -20 0 -25 5 -25 25 0 20 5 25 25 25 20 0 25 -5
25 -25z m-3950 -210 c0 -21 5 -25 30 -25 25 0 30 -4 30 -25 0 -21 -5 -25 -30
-25 -25 0 -30 4 -30 25 0 23 -3 25 -50 25 -47 0 -50 2 -50 25 0 23 3 25 50 25
47 0 50 -2 50 -25z m3950 -50 c0 -20 -5 -25 -25 -25 -20 0 -25 -5 -25 -25 0
-21 -5 -25 -30 -25 -25 0 -30 4 -30 25 0 21 5 25 30 25 25 0 30 4 30 25 0 20
5 25 25 25 20 0 25 -5 25 -25z m-50 -175 c0 -49 -1 -50 -30 -50 -29 0 -30 1
-30 50 0 49 1 50 30 50 29 0 30 -1 30 -50z m-3790 -75 c0 -20 -5 -25 -25 -25
-20 0 -25 5 -25 25 0 20 5 25 25 25 20 0 25 -5 25 -25z m3730 -55 c0 -29 -1
-30 -50 -30 -49 0 -50 1 -50 30 0 29 1 30 50 30 49 0 50 -1 50 -30z m-3680
-105 c0 -23 -3 -25 -50 -25 -47 0 -50 2 -50 25 0 23 3 25 50 25 47 0 50 -2 50
-25z m3580 0 c0 -20 -5 -25 -25 -25 -20 0 -25 5 -25 25 0 20 5 25 25 25 20 0
25 -5 25 -25z m0 -125 c0 -47 -2 -50 -25 -50 -23 0 -25 -3 -25 -50 l0 -50 -50
0 -50 0 0 50 c0 47 2 50 25 50 23 0 25 3 25 50 l0 50 50 0 50 0 0 -50z m-3330
-310 c0 -49 1 -50 30 -50 25 0 30 -4 30 -25 0 -20 5 -25 25 -25 20 0 25 -5 25
-25 0 -24 -3 -25 -55 -25 l-55 0 0 50 c0 47 -2 50 -25 50 -23 0 -25 3 -25 50
0 47 2 50 25 50 23 0 25 -3 25 -50z m3080 0 c0 -49 -1 -50 -30 -50 -25 0 -30
4 -30 25 0 20 -5 25 -25 25 -20 0 -25 5 -25 25 0 24 3 25 55 25 l55 0 0 -50z
m-60 -125 c0 -24 -2 -25 -75 -25 -73 0 -75 1 -75 25 0 24 2 25 75 25 73 0 75
-1 75 -25z m-2760 -100 c0 -20 5 -25 25 -25 20 0 25 -5 25 -25 0 -20 5 -25 25
-25 21 0 25 -5 25 -30 0 -29 1 -30 50 -30 47 0 50 -2 50 -25 0 -23 -3 -25 -50
-25 -47 0 -50 2 -50 25 0 23 -3 25 -50 25 l-50 0 0 55 c0 52 -1 55 -25 55 -20
0 -25 5 -25 25 0 20 5 25 25 25 20 0 25 -5 25 -25z m2460 -80 c0 -52 -1 -55
-25 -55 -20 0 -25 -5 -25 -25 0 -20 -5 -25 -25 -25 -20 0 -25 5 -25 25 0 21
-5 25 -30 25 -27 0 -30 3 -30 30 0 30 1 30 55 30 52 0 55 1 55 25 0 20 5 25
25 25 24 0 25 -3 25 -55z m150 30 c0 -23 -3 -25 -50 -25 -47 0 -50 2 -50 25 0
23 3 25 50 25 47 0 50 -2 50 -25z m-360 -160 c0 -23 -3 -25 -50 -25 -47 0 -50
-2 -50 -25 0 -20 -5 -25 -25 -25 -20 0 -25 -5 -25 -25 0 -23 -3 -25 -50 -25
-47 0 -50 2 -50 25 0 20 5 25 25 25 20 0 25 5 25 25 0 23 3 25 50 25 47 0 50
2 50 25 0 23 3 25 50 25 47 0 50 -2 50 -25z m-1330 -200 c0 -20 5 -25 25 -25
20 0 25 5 25 25 0 24 3 25 55 25 52 0 55 -1 55 -25 0 -20 5 -25 25 -25 20 0
25 -5 25 -25 0 -20 -5 -25 -25 -25 -20 0 -25 5 -25 25 0 24 -3 25 -55 25 -52
0 -55 -1 -55 -25 0 -23 -3 -25 -50 -25 l-50 0 0 50 c0 47 2 50 25 50 20 0 25
-5 25 -25z"/>
<path d="M1020 4225 c0 -20 -5 -25 -25 -25 -20 0 -25 -5 -25 -25 0 -20 -5 -25
-25 -25 -20 0 -25 -5 -25 -25 0 -20 -5 -25 -25 -25 -21 0 -25 -5 -25 -30 0
-25 -4 -30 -25 -30 -20 0 -25 -5 -25 -25 0 -20 -5 -25 -25 -25 -20 0 -25 -5
-25 -25 0 -20 5 -25 25 -25 20 0 25 5 25 25 0 20 5 25 25 25 20 0 25 5 25 25
0 20 5 25 25 25 21 0 25 5 25 30 0 25 4 30 25 30 20 0 25 5 25 25 0 20 5 25
25 25 20 0 25 5 25 25 0 21 5 25 30 25 25 0 30 4 30 25 0 21 -5 25 -30 25 -25
0 -30 -4 -30 -25z"/>
<path d="M1130 4225 c0 -20 5 -25 25 -25 20 0 25 -5 25 -25 0 -23 3 -25 50
-25 47 0 50 2 50 25 0 23 -3 25 -50 25 -47 0 -50 2 -50 25 0 20 -5 25 -25 25
-20 0 -25 -5 -25 -25z"/>
<path d="M1430 4200 c0 -47 2 -50 25 -50 23 0 25 3 25 50 0 47 -2 50 -25 50
-23 0 -25 -3 -25 -50z"/>
<path d="M1230 3665 c0 -20 5 -25 25 -25 20 0 25 5 25 25 0 20 -5 25 -25 25
-20 0 -25 -5 -25 -25z"/>
<path d="M1180 3405 c0 -20 5 -25 25 -25 20 0 25 5 25 25 0 20 -5 25 -25 25
-20 0 -25 -5 -25 -25z"/>
<path d="M4200 4635 c0 -20 5 -25 25 -25 20 0 25 5 25 25 0 20 -5 25 -25 25
-20 0 -25 -5 -25 -25z"/>
<path d="M4100 4480 c0 -27 -3 -30 -30 -30 -25 0 -30 -4 -30 -25 0 -24 -2 -25
-75 -25 -73 0 -75 -1 -75 -25 0 -24 2 -25 75 -25 73 0 75 -1 75 -25 0 -23 -3
-25 -50 -25 -47 0 -50 -2 -50 -25 0 -23 3 -25 50 -25 47 0 50 2 50 25 0 21 5
25 30 25 25 0 30 4 30 25 0 21 -5 25 -30 25 -25 0 -30 4 -30 25 0 21 5 25 30
25 25 0 30 4 30 25 0 20 5 25 25 25 21 0 25 5 25 30 0 25 -4 30 -25 30 -21 0
-25 -5 -25 -30z"/>
<path d="M4300 4455 c0 -52 1 -55 25 -55 20 0 25 5 25 25 0 20 5 25 25 25 21
0 25 5 25 30 0 29 -1 30 -50 30 l-50 0 0 -55z"/>
<path d="M4400 4325 c0 -20 -5 -25 -25 -25 -20 0 -25 -5 -25 -25 0 -24 -2 -25
-75 -25 -73 0 -75 1 -75 25 0 20 -5 25 -25 25 -20 0 -25 -5 -25 -25 0 -20 5
-25 25 -25 20 0 25 -5 25 -25 0 -23 -3 -25 -50 -25 -47 0 -50 -2 -50 -25 0
-20 5 -25 25 -25 20 0 25 -5 25 -25 0 -24 -3 -25 -55 -25 -52 0 -55 1 -55 25
0 23 -3 25 -50 25 -47 0 -50 -2 -50 -25 0 -23 3 -25 50 -25 49 0 50 -1 50 -30
0 -25 -4 -30 -25 -30 -20 0 -25 -5 -25 -25 0 -20 5 -25 25 -25 23 0 25 -3 25
-50 0 -49 1 -50 30 -50 29 0 30 1 30 50 0 49 -1 50 -30 50 -25 0 -30 4 -30 25
0 24 3 25 55 25 54 0 55 0 55 30 0 25 4 30 25 30 20 0 25 5 25 25 0 20 5 25
25 25 20 0 25 5 25 25 0 23 3 25 50 25 47 0 50 2 50 25 0 23 3 25 50 25 47 0
50 2 50 25 0 21 5 25 30 25 25 0 30 4 30 25 0 24 -3 25 -55 25 -52 0 -55 -1
-55 -25z"/>
<path d="M3740 4150 c0 -47 -2 -50 -25 -50 -21 0 -25 -5 -25 -30 0 -25 4 -30
25 -30 21 0 25 5 25 30 0 25 4 30 25 30 23 0 25 3 25 50 0 47 -2 50 -25 50
-23 0 -25 -3 -25 -50z"/>
<path d="M3840 4150 c0 -47 2 -50 25 -50 23 0 25 3 25 50 0 47 -2 50 -25 50
-23 0 -25 -3 -25 -50z"/>
<path d="M3790 4015 c0 -20 5 -25 25 -25 20 0 25 5 25 25 0 20 -5 25 -25 25
-20 0 -25 -5 -25 -25z"/>
<path d="M3230 3965 c0 -20 5 -25 25 -25 20 0 25 5 25 25 0 20 -5 25 -25 25
-20 0 -25 -5 -25 -25z"/>
<path d="M3640 3965 c0 -21 -5 -25 -30 -25 -25 0 -30 -4 -30 -25 0 -23 -3 -25
-50 -25 l-50 0 0 -50 c0 -47 -2 -50 -25 -50 -20 0 -25 -5 -25 -25 0 -20 5 -25
25 -25 20 0 25 -5 25 -25 l0 -25 105 0 105 0 0 25 c0 20 5 25 25 25 24 0 25 2
25 75 0 73 -1 75 -25 75 -23 0 -25 3 -25 50 0 47 -2 50 -25 50 -20 0 -25 -5
-25 -25z m-110 -200 c0 -20 -5 -25 -25 -25 -20 0 -25 5 -25 25 0 20 5 25 25
25 20 0 25 -5 25 -25z"/>
<path d="M4200 3865 c0 -25 -1 -25 -80 -25 -79 0 -80 0 -80 -25 0 -25 1 -25
80 -25 79 0 80 0 80 25 l0 25 125 0 125 0 0 25 0 25 -125 0 -125 0 0 -25z"/>
<path d="M3940 3765 c0 -20 5 -25 25 -25 20 0 25 5 25 25 0 20 -5 25 -25 25
-20 0 -25 -5 -25 -25z"/>
<path d="M3940 3665 c0 -20 5 -25 25 -25 20 0 25 5 25 25 0 20 -5 25 -25 25
-20 0 -25 -5 -25 -25z"/>
<path d="M3690 3555 c0 -20 5 -25 25 -25 20 0 25 -5 25 -25 0 -20 5 -25 25
-25 20 0 25 5 25 25 0 20 -5 25 -25 25 -20 0 -25 5 -25 25 0 20 -5 25 -25 25
-20 0 -25 -5 -25 -25z"/>
<path d="M3990 3505 c0 -24 3 -25 55 -25 52 0 55 1 55 25 0 24 -3 25 -55 25
-52 0 -55 -1 -55 -25z"/>
<path d="M4150 3505 c0 -20 5 -25 25 -25 20 0 25 -5 25 -25 0 -24 2 -25 75
-25 73 0 75 -1 75 -25 0 -23 3 -25 50 -25 47 0 50 -2 50 -25 0 -21 5 -25 30
-25 25 0 30 4 30 25 0 21 -5 25 -30 25 -25 0 -30 4 -30 25 0 23 -3 25 -50 25
-47 0 -50 2 -50 25 0 24 -2 25 -75 25 -73 0 -75 1 -75 25 0 20 -5 25 -25 25
-20 0 -25 -5 -25 -25z"/>
<path d="M3640 3430 c0 -49 -1 -50 -30 -50 -25 0 -30 -4 -30 -25 0 -20 -5 -25
-25 -25 -20 0 -25 -5 -25 -25 0 -20 5 -25 25 -25 20 0 25 5 25 25 0 21 5 25
30 25 25 0 30 4 30 25 0 20 5 25 25 25 23 0 25 -3 25 -50 0 -47 2 -50 25 -50
25 0 25 -1 25 -80 0 -79 0 -80 25 -80 20 0 25 -5 25 -25 0 -20 5 -25 25 -25
23 0 25 -3 25 -50 0 -47 2 -50 25 -50 23 0 25 3 25 50 0 47 -2 50 -25 50 -20
0 -25 5 -25 25 0 20 -5 25 -25 25 -25 0 -25 1 -25 80 0 79 0 80 -25 80 -23 0
-25 3 -25 50 0 47 -2 50 -25 50 -23 0 -25 3 -25 50 0 47 -2 50 -25 50 -23 0
-25 -3 -25 -50z"/>
<path d="M3380 3355 c0 -73 -1 -75 -25 -75 -24 0 -25 -3 -25 -55 0 -52 -1 -55
-25 -55 -23 0 -25 -3 -25 -50 0 -47 -2 -50 -25 -50 -20 0 -25 -5 -25 -25 0
-21 -5 -25 -30 -25 -29 0 -30 -1 -30 -50 0 -49 1 -50 30 -50 25 0 30 4 30 25
0 20 5 25 25 25 23 0 25 3 25 50 0 47 2 50 25 50 23 0 25 3 25 50 0 47 2 50
25 50 24 0 25 3 25 55 0 52 1 55 25 55 24 0 25 2 25 75 0 73 -1 75 -25 75 -24
0 -25 -2 -25 -75z"/>
<path d="M2610 3200 c0 -25 4 -30 25 -30 20 0 25 -5 25 -25 0 -20 5 -25 25
-25 23 0 25 -3 25 -50 l0 -50 55 0 55 0 0 -50 0 -50 50 0 c47 0 50 -2 50 -25
0 -20 5 -25 25 -25 20 0 25 5 25 25 0 20 -5 25 -25 25 -20 0 -25 5 -25 25 0
20 -5 25 -25 25 -20 0 -25 5 -25 25 0 20 -5 25 -25 25 -20 0 -25 5 -25 25 0
21 -5 25 -30 25 -25 0 -30 4 -30 25 0 20 -5 25 -25 25 -20 0 -25 5 -25 25 0
20 -5 25 -25 25 -21 0 -25 5 -25 30 0 25 -4 30 -25 30 -21 0 -25 -5 -25 -30z"/>
</g>
</svg>
