<?xml version="1.0" encoding="utf-8"?>
<!-- Generator: Adobe Illustrator 27.3.0, SVG Export Plug-In . SVG Version: 6.00 Build 0)  -->
<svg version="1.1" xmlns="http://www.w3.org/2000/svg" xmlns:xlink="http://www.w3.org/1999/xlink" x="0px" y="0px"
	 viewBox="0 0 640 480" style="enable-background:new 0 0 640 480;" xml:space="preserve">
<style type="text/css">
	.st0{fill:#FF495F;}
	.st1{fill:#FF895F;}
	.st2{fill:#FFC55F;}
	.st3{fill:#C5E38A;}
	.st4{fill:#9FDCEC;}
	.st5{fill:#9FC4FF;}
	.st6{fill:#D27FFF;}
	.st7{fill:#FF74C6;}
	.st8{fill:url(#SVGID_1_);stroke:#3B006A;stroke-width:5;stroke-miterlimit:10;}
	.st9{fill:url(#SVGID_00000072254666219184938840000013851988772953013433_);stroke:#3B006A;stroke-width:5;stroke-miterlimit:10;}
	.st10{fill:none;stroke:#3B006A;stroke-width:5;stroke-miterlimit:10;}
	.st11{fill:none;}
	.st12{fill:#3B006A;}
	.st13{font-family:'MVBoli';}
	.st14{font-size:72px;}
</style>
<g id="Layer_5">
	<path class="st0" d="M147.19,166.23c0.03,1.71,0.26,4.28,1.32,7.18c0.36,0.99,1.11,3.05,1.96,4.05c4.25,4.95,18.43-7.99,37.53-7.01
		c8.11,0.41,12.55,3.03,16.76-0.11c1.91-1.42,2.95-3.5,4.38-12.6c1.26-7.99,3.23-22.4,2.23-36.31c-0.24-3.33-0.41-6.62-0.39-9.81
		c0.02-3.18,0.23-6.26,0.75-9.17c0.04-3,0.08-5.8,0.12-8.29c0.09-6.64,0.16-11.07,0.16-11.07l-57.15-0.8c0,0-0.06,4.43-0.16,11.07
		c0.6,7.64-0.15,15.28-1.6,22.84c-0.48,2.52-1.04,5.03-1.62,7.55c-0.38,2.16-0.76,4.33-1.12,6.51c-0.53,3.21-0.91,5.72-1.01,6.39
		c-0.02,0.16-0.02,0.16-0.03,0.17c-0.62,3.02-9.66,1.36-12.61,4.11c-6.65,6.21,12.95,39.37,14.68,38.53
		C151.83,179.26,151.41,176.83,147.19,166.23z"/>
	<path class="st1" d="M237.68,199.72c-10.88-8.85-21.76-17.7-32.64-26.55c0.82-29.59,5.49-38.6,10.55-39.83
		c5.63-1.37,10.09,7.29,18.65,5.97c5.99-0.93,8.29-5.86,17.07-15.01c4.68-4.88,10.49-10.22,17.66-15.53
		c14.89,14.17,29.78,28.34,44.67,42.51c-7.06,8.7-18.65,20.91-35.83,31.52C262.4,192.29,247.98,197.14,237.68,199.72z"/>
	<path class="st1" d="M272.56,123.9"/>
	<path class="st2" d="M337.24,268.37c-14.02,0.57-31.54,0.09-51.36-3.25c-18.74-3.16-34.66-8.04-47.28-12.85
		c1.14-6.56,2.02-14.29,2.11-22.98c0.11-10.88-1.03-20.38-2.5-28.09c9.64-3.7,17.11-7.26,22.12-9.81
		c7.95-4.05,10.48-5.93,13.95-5.01c6.66,1.77,4.78,11.22,13.06,17.25c5.47,3.98,12.37,4.47,25.95,5.28
		c6.48,0.39,15.42,0.6,26.14-0.19C338.71,228.61,337.97,248.49,337.24,268.37z"/>
	<path class="st3" d="M303.73,321.7c-14.22,13.54-28.44,27.08-42.66,40.62c-8.85-8.23-19.77-20.03-29.79-35.93
		c-11.64-18.46-17.91-35.81-21.4-48.52c9.57-8.53,19.15-17.07,28.72-25.6c34.36,4.6,43.72,11,44.45,16.69
		c0.74,5.75-7.48,9.61-6.43,18.09c0.68,5.52,4.65,7.86,12.79,16.71C293.14,307.81,298.24,313.77,303.73,321.7z"/>
	<path class="st4" d="M214.53,384.65c-19.86,0.13-39.71,0.27-59.57,0.4c-2.47-14.32-4.3-33.87-1.88-56.78
		c1.92-18.22,6-33.6,10.1-45.51c15.92-0.79,31.83-1.57,47.75-2.36c6.56,17,11.7,29.63,15.8,38.34c0.89,1.88,2.99,6.29,1.14,9.24
		c-2.17,3.44-7.49,1.38-11.58,4.37c-4.1,3-4.33,9.17-3.92,20.88C212.65,361.46,213.24,372.11,214.53,384.65z"/>
	<path class="st5" d="M163.49,281.33c-3.64-6.86-15.2-5.03-20.76-14.96c-1.63-2.91-1.04-3.78-2.25-5.11
		c-3.53-3.86-14.83-3.47-49.38,15.82c-12.42,12.4-24.83,24.8-37.25,37.2c13.21,15.29,26.42,30.57,39.63,45.86
		c30.5-35.13,37.91-38.27,39.99-36.96c0.83,0.52,6.03,5.04,6.37,5.33c0.22,0.19,0.41,0.36,0.59,0.52c0.72-0.45,1.61-0.72,2.68-0.7
		c1.18,0.02,2.13,0.37,2.87,0.92c0.1,0,0.2-0.01,0.31-0.01c2.88,0.04,4.44,2.06,4.71,4.28c0.3,0.01,0.59,0.03,0.9,0.03
		c1.41-14.68,4.65-25.82,7.41-33.39C162.86,290.44,165.9,285.87,163.49,281.33z"/>
	<path class="st6" d="M137.25,256.62c-32.99,18.35-44.77,20.32-47.84,16.66c-1.78-2.13-0.75-6.34-4.02-8.76
		c-3.86-2.87-10.04-0.45-12.32,0.3c-6.94,2.29-18.73,4.35-40.04,3.17c-1.27-20.88-2.53-41.75-3.8-62.63
		c14.35-1.21,31.5-1.62,50.74-0.01c19.27,1.62,36.14,4.9,50.1,8.49c-1.04,4.56-2.08,11.7-0.93,20.27
		C130.55,244.59,134.58,252.33,137.25,256.62z"/>
	<path class="st7" d="M151.4,179.47c-8.08,11.25-16.15,22.49-24.23,33.74c-30.42-2.65-38.92-7.5-39.62-12.11
		c-0.53-3.49,3.28-7.64,1.35-13.86c-0.82-2.67-2.29-4.38-4.47-6.72c-7.78-8.32-15.18-14.35-17.26-16.06
		c-3.62-2.99-8.66-7.42-14.36-13.37c13.47-14.63,26.94-29.26,40.4-43.89c10.34,6.57,25.47,18,38.94,36.31
		C141.96,156.85,147.83,169.68,151.4,179.47z"/>
	<g>
		<g>
			<path class="st0" d="M178.18,127.39c0.64,2.06,1.22,4.13,1.76,6.21c1.52-0.64,3.05-1.28,4.57-1.93c-1.16-2.67-2.32-5.33-3.49-8
				c-0.82-1.88-4.29-1.48-4.57,0.6c-0.4,2.96-0.81,5.92-1.21,8.88c1.61,0,3.21,0,4.82,0c-0.37-2.04-0.73-4.08-1.1-6.12
				c-0.43-2.38-4.4-2.39-4.82,0c-0.7,4.01-1.4,8.01-2.1,12.02c1.52-0.2,3.05-0.4,4.57-0.6c-1.28-2.81-2.16-5.89-2.54-8.96
				c-0.15-1.24-0.83-2.3-2.17-2.46c-1.11-0.13-2.56,0.55-2.74,1.79c-0.52,3.44-1.04,6.89-1.55,10.33c1.61,0,3.21,0,4.82,0
				c-0.61-4.22-0.24-8.55,0.91-12.65c-1.03,0.58-2.05,1.16-3.08,1.75c-0.42-0.06-0.75-0.95-0.46-0.21c0.13,0.35,0.25,0.7,0.37,1.05
				c0.26,0.76,0.5,1.53,0.73,2.3c0.47,1.61,0.85,3.24,1.15,4.88c0.44,2.34,4.46,2.43,4.82,0c0.35-2.36,0.7-4.73,1.06-7.09
				c0.17-1.12-0.11-2.22-1.15-2.82c-0.88-0.51-2.36-0.47-3.03,0.39c-1.5,1.91-3,3.83-4.5,5.74c1.18,0,2.36,0,3.54,0
				c0.07,0.07,0.07,0.25,0.04-0.03c-0.03-0.3-0.15-0.61-0.22-0.9c-0.15-0.63-0.31-1.27-0.46-1.9c-0.31-1.27-0.61-2.54-0.92-3.8
				c-0.53-2.17-3.46-2.35-4.57-0.6c-1.64,2.58-3.27,5.17-4.91,7.75c1.52,0.2,3.05,0.4,4.57,0.6c-0.54-1.44-0.7-2.79-0.52-4.32
				c0.14-1.22-1.06-2.32-2.17-2.46c-1.15-0.14-2.5,0.55-2.74,1.79c-0.34,1.7-0.51,3.42-0.46,5.15c1.64-0.22,3.27-0.44,4.91-0.66
				c-0.26-1.15-0.44-2.3-0.53-3.47c-0.1-1.35-1.08-2.5-2.5-2.5c-1.27,0-2.6,1.15-2.5,2.5c0.12,1.62,0.35,3.22,0.71,4.8
				c0.62,2.74,5,2.15,4.91-0.66c-0.04-1.29,0.03-2.55,0.28-3.82c-1.64-0.22-3.27-0.44-4.91-0.66c-0.22,1.9,0.02,3.86,0.69,5.64
				c0.75,2,3.36,2.51,4.57,0.6c1.64-2.58,3.27-5.17,4.91-7.75c-1.52-0.2-3.05-0.4-4.57-0.6c0.37,1.52,0.74,3.04,1.11,4.56
				c0.37,1.51,0.58,3.15,1.75,4.28c0.88,0.85,2.69,1.08,3.54,0c1.5-1.91,3-3.83,4.5-5.74c-1.39-0.81-2.79-1.62-4.18-2.43
				c-0.35,2.36-0.7,4.73-1.06,7.09c1.61,0,3.21,0,4.82,0c-0.4-2.13-0.92-4.24-1.59-6.3c-0.62-1.92-1.31-4.87-3.7-5.22
				c-1.34-0.2-2.67,0.32-3.08,1.75c-1.41,5.01-1.65,10.17-0.91,15.31c0.35,2.39,4.46,2.38,4.82,0c0.52-3.44,1.04-6.89,1.55-10.33
				c-1.64-0.22-3.27-0.44-4.91-0.66c0.49,4.02,1.54,7.79,3.22,11.48c0.86,1.9,4.21,1.46,4.57-0.6c0.7-4.01,1.4-8.01,2.1-12.02
				c-1.61,0-3.21,0-4.82,0c0.37,2.04,0.73,4.08,1.1,6.12c0.19,1.07,1.39,1.84,2.41,1.84c1,0,2.26-0.77,2.41-1.84
				c0.4-2.96,0.81-5.92,1.21-8.88c-1.52,0.2-3.05,0.4-4.57,0.6c1.16,2.67,2.32,5.33,3.49,8c0.49,1.13,2.1,1.47,3.12,1.02
				c1.14-0.5,1.76-1.71,1.45-2.95c-0.53-2.09-1.12-4.16-1.76-6.21C182.05,123,177.22,124.3,178.18,127.39L178.18,127.39z"/>
		</g>
	</g>
	<g>
		<g>
			<path class="st0" d="M156.33,129.51c-0.68,4.18-1.33,8.37-1.93,12.57c-0.1,0.69-0.12,1.3,0.25,1.93c0.3,0.52,0.9,1.01,1.49,1.15
				c1.18,0.27,2.88-0.36,3.08-1.75c0.6-4.2,1.25-8.39,1.93-12.57c0.21-1.29-0.33-2.75-1.75-3.08
				C158.2,127.49,156.55,128.13,156.33,129.51L156.33,129.51z"/>
		</g>
	</g>
	<g>
		<g>
			<path class="st2" d="M275.02,189.32c3.22,0,3.22-5,0-5C271.8,184.32,271.79,189.32,275.02,189.32L275.02,189.32z"/>
		</g>
	</g>
	<g>
		<g>
			<path class="st6" d="M71.52,247.16c8.35-0.88,16.73-1.4,25.12-1.59c3.21-0.07,3.22-5.07,0-5c-8.39,0.18-16.77,0.71-25.12,1.59
				c-1.34,0.14-2.5,1.05-2.5,2.5C69.02,245.9,70.17,247.3,71.52,247.16L71.52,247.16z"/>
		</g>
	</g>
</g>
<g id="Layer_2">
	
		<radialGradient id="SVGID_1_" cx="185.3699" cy="232.9531" r="104.0745" gradientTransform="matrix(0.9999 0.0141 -0.0141 0.9999 3.3101 -2.5827)" gradientUnits="userSpaceOnUse">
		<stop  offset="0.5056" style="stop-color:#130C0E;stop-opacity:0"/>
		<stop  offset="0.5744" style="stop-color:#130C0E;stop-opacity:0"/>
	</radialGradient>
	<circle class="st8" cx="185.38" cy="232.96" r="104.07"/>
	
		<radialGradient id="SVGID_00000076581236907072245670000002903309247744052871_" cx="185.3699" cy="226.5314" r="56.8313" gradientTransform="matrix(0.9999 0.0141 -0.0141 0.9999 3.3101 -2.5827)" gradientUnits="userSpaceOnUse">
		<stop  offset="0.5056" style="stop-color:#130C0E;stop-opacity:0"/>
		<stop  offset="0.5744" style="stop-color:#130C0E;stop-opacity:0"/>
	</radialGradient>
	
		<circle style="fill:url(#SVGID_00000076581236907072245670000002903309247744052871_);stroke:#3B006A;stroke-width:5;stroke-miterlimit:10;" cx="185.47" cy="226.54" r="56.83"/>
	<g>
		<line class="st10" x1="90.82" y1="278.51" x2="51.39" y2="316.65"/>
		<line class="st10" x1="132.9" y1="322" x2="93.47" y2="360.14"/>
		<line class="st10" x1="51.66" y1="313.43" x2="96.73" y2="360.03"/>
	</g>
	<path class="st0" d="M184.02,126.99c3.55,1.5,7.09,2.99,10.64,4.49"/>
</g>
<g id="Layer_6">
	<g>
		<g>
			<path class="st7" d="M107.63,167.06c-1.28-2.04-2.55-4.08-3.83-6.12c-1.31,1.01-2.62,2.02-3.93,3.03
				c3.48,3.84,7.54,7.13,11.99,9.78c0.86,0.51,2.01,0.42,2.78-0.2c0.86-0.68,1.04-1.58,0.9-2.63c-0.6-4.38-1.63-8.68-3.09-12.85
				c-1.52,0.64-3.05,1.28-4.57,1.93c2.43,3.68,4.09,7.74,5.7,11.83c0.87,2.21,4.06,2.52,4.82,0c0.68-2.25,0.06-4.4-0.7-6.53
				c-0.75-2.11-1.51-4.23-2.26-6.34c-0.91-2.56-4.91-2.29-4.91,0.66c0,3.29-0.15,6.57-0.47,9.84c-0.15,1.49-0.33,2.98-0.56,4.46
				c-0.13,0.85-0.28,1.7-0.43,2.55c-0.1,0.55-0.24,1.59-0.39,1.82c0.3-0.3,0.6-0.6,0.9-0.9c-0.08,0.05-0.15,0.1-0.23,0.15
				c0.42-0.11,0.84-0.23,1.26-0.34c0.01,0,0.02-0.01,0.03-0.01c0.37,0.21,0.74,0.43,1.1,0.64c-1.11-0.89-1.92-2.33-2.69-3.51
				c-0.87-1.33-1.66-2.71-2.38-4.13c-1.4-2.78-2.43-5.71-3.18-8.72c-1.52,0.64-3.05,1.28-4.57,1.93c2.91,4.65,6,9.18,9.25,13.6
				c0.75,1.02,2.22,1.73,3.42,0.9c1.97-1.36,1.79-3.25,1.37-5.36c-0.4-1.96-0.79-3.91-1.19-5.87c-0.81-3.99-1.62-7.99-2.42-11.98
				c-0.27-1.32-1.84-2.09-3.08-1.75c-1.42,0.39-1.96,1.74-1.75,3.08c0.7,4.44,1.75,8.81,3.13,13.09c0.98,3.05,5.81,1.75,4.82-1.33
				c-1.38-4.28-2.42-8.65-3.13-13.09c-1.61,0.44-3.21,0.89-4.82,1.33c0.67,3.29,1.33,6.58,2,9.87c0.32,1.57,0.63,3.13,0.95,4.7
				c0.17,0.86,0.35,1.72,0.52,2.58c0.08,0.39,0.16,0.78,0.24,1.17c0.13,0.69-0.09,0.39,0.17-0.02c0.3-0.3,0.6-0.6,0.9-0.9
				c-0.08,0.05-0.15,0.11-0.23,0.16c1.14,0.3,2.28,0.6,3.42,0.9c-3.25-4.42-6.33-8.96-9.25-13.6c-1.5-2.4-5.26-0.86-4.57,1.93
				c0.91,3.7,2.28,7.29,4.06,10.65c0.84,1.59,1.78,3.13,2.81,4.6c1.02,1.45,2.22,3.62,4.07,4.09c2.53,0.64,3.75-1.57,4.15-3.64
				c0.39-2.06,0.71-4.14,0.98-6.23c0.54-4.19,0.8-8.41,0.79-12.64c-1.64,0.22-3.27,0.44-4.91,0.66c0.65,1.81,1.29,3.62,1.94,5.44
				c0.52,1.45,1.49,3.22,1.02,4.78c1.61,0,3.21,0,4.82,0c-1.76-4.48-3.54-8.99-6.2-13.02c-0.68-1.04-1.95-1.54-3.12-1.02
				c-1.07,0.47-1.87,1.75-1.45,2.95c1.46,4.18,2.5,8.47,3.09,12.85c1.22-0.94,2.45-1.88,3.67-2.82c-4.11-2.45-7.77-5.46-10.98-9
				c-1.9-2.1-5.43,0.62-3.93,3.03c1.28,2.04,2.55,4.08,3.83,6.12C105.02,172.3,109.35,169.8,107.63,167.06L107.63,167.06z"/>
		</g>
	</g>
	<g>
		<g>
			<path class="st7" d="M88.52,180.04c3.8,4.06,8,7.72,12.49,11.01c1.06,0.77,2.83,0.21,3.42-0.9c0.69-1.3,0.23-2.59-0.9-3.42
				c-0.53-0.39-1.06-0.78-1.58-1.18c-0.17-0.13-0.21-0.16-0.02-0.01c-0.14-0.11-0.29-0.23-0.43-0.34c-0.26-0.2-0.52-0.41-0.77-0.62
				c-1.02-0.83-2.03-1.68-3.02-2.56c-1.97-1.75-3.86-3.59-5.66-5.52c-0.9-0.96-2.64-0.97-3.54,0
				C87.58,177.53,87.57,179.02,88.52,180.04L88.52,180.04z"/>
		</g>
	</g>
	<g>
		<g>
			<path class="st7" d="M93.31,184.54c3.22,0,3.22-5,0-5C90.1,179.54,90.09,184.54,93.31,184.54L93.31,184.54z"/>
		</g>
	</g>
	<g>
		<path d="M96.14,175.76c1.52,1.53,3.19,2.92,4.97,4.15"/>
	</g>
	<g>
		<g>
			<path class="st7" d="M97.73,178.19c2.77-1.29,5.54-2.59,8.3-3.88c-1.01-1.31-2.02-2.62-3.03-3.93c-0.05,0.13-0.12,0.21-0.23,0.24
				c-0.04,0.02-0.03-0.01,0.03-0.08c0.44,0,0.89,0,1.33,0c-0.08-0.02-0.17-0.04-0.25-0.06c0.37,0.21,0.74,0.43,1.1,0.64
				c0.22,0.46,0.28,0.55,0.16,0.27c-0.06-0.15-0.12-0.29-0.18-0.43c-0.18-0.37-0.39-0.73-0.69-1.01c-0.6-0.57-1.44-0.9-2.26-0.94
				c-1.56-0.06-2.86,0.88-3.65,2.15c-1.63,2.6-2.82,5.6-4.19,8.35c1.55,0.42,3.11,0.84,4.66,1.26c-0.26-3.64-0.23-7.28,0.08-10.91
				c-1.55,0.42-3.11,0.84-4.66,1.26c0.72,1.4,1.44,2.8,2.15,4.21c1.08,2.1,3.85,1.24,4.57-0.6c1.18-3,2.36-6,3.54-9
				c-1.52,0.2-3.05,0.4-4.57,0.6c1.23,2.29,1.84,4.82,2.45,7.33c0.55,2.26,4.45,2.51,4.82,0c0.58-3.92,0.91-7.85,0.9-11.81
				c-1.64,0.22-3.27,0.44-4.91,0.66c0.74,3.08,1.6,6.12,2.57,9.14c0.34,1.05,1.28,1.84,2.41,1.84c1,0,2.26-0.77,2.41-1.84
				c0.68-4.68,1.36-9.37,2.05-14.05c-1.61,0-3.21,0-4.82,0c1.54,3.73,3.07,7.46,4.61,11.19c0.43,1.04,1.21,1.84,2.41,1.84
				c1.01,0,2.24-0.77,2.41-1.84c0.89-5.56,1.39-11.16,1.45-16.79c-1.64,0.22-3.27,0.44-4.91,0.66c0.26,0.91,0.51,1.81,0.77,2.72
				c1.52-0.64,3.05-1.28,4.57-1.93c-1.79-3.34-3.91-6.46-6.28-9.42c-1.42-1.78-4.24-0.22-4.27,1.77
				c-0.09,6.04,1.25,11.93,3.82,17.38c1.08,2.28,4.72,1.12,4.66-1.26c-0.1-3.49-0.62-6.96-1.58-10.32
				c-0.75-2.62-5.13-2.23-4.91,0.66c0.09,1.2,0.27,2.4,0.58,3.56c0.82,3.11,5.64,1.79,4.82-1.33c-0.2-0.74-0.34-1.47-0.4-2.24
				c-1.64,0.22-3.27,0.44-4.91,0.66c0.84,2.95,1.32,5.93,1.4,8.99c1.55-0.42,3.11-0.84,4.66-1.26c-2.19-4.64-3.22-9.73-3.14-14.86
				c-1.42,0.59-2.85,1.18-4.27,1.77c2.1,2.62,3.91,5.45,5.5,8.4c1.35,2.51,5.34,0.79,4.57-1.93c-0.26-0.91-0.51-1.81-0.77-2.72
				c-0.77-2.71-4.88-2.17-4.91,0.66c-0.05,5.18-0.46,10.35-1.27,15.47c1.61,0,3.21,0,4.82,0c-1.54-3.73-3.07-7.46-4.61-11.19
				c-0.43-1.04-1.21-1.84-2.41-1.84c-1,0-2.26,0.77-2.41,1.84c-0.68,4.68-1.36,9.37-2.05,14.05c1.61,0,3.21,0,4.82,0
				c-0.97-3.01-1.82-6.06-2.57-9.14c-0.67-2.76-4.92-2.14-4.91,0.66c0.01,3.51-0.2,7.01-0.72,10.48c1.61,0,3.21,0,4.82,0
				c-0.72-2.94-1.52-5.84-2.96-8.52c-1.11-2.07-3.84-1.26-4.57,0.6c-1.18,3-2.36,6-3.54,9c1.52-0.2,3.05-0.4,4.57-0.6
				c-0.72-1.4-1.44-2.8-2.15-4.21c-0.5-0.98-1.8-1.43-2.82-1.15c-1.12,0.31-1.74,1.3-1.84,2.41c-0.31,3.63-0.33,7.27-0.08,10.91
				c0.16,2.28,3.47,3.65,4.66,1.26c0.79-1.58,1.57-3.16,2.36-4.73c0.36-0.72,0.72-1.43,1.07-2.15c0.19-0.37,0.43-0.77,0.58-1.16
				c0.47-1.22,0.22,1.89-1.59-0.3c-0.21-0.37-0.43-0.74-0.64-1.1c0.52,1.31,1.03,2.41,2.53,2.76c1.41,0.33,2.81-0.43,3.74-1.44
				c1.98-2.16-0.49-5.12-3.03-3.93c-2.77,1.29-5.54,2.59-8.3,3.88c-1.22,0.57-1.53,2.33-0.9,3.42
				C95.04,178.55,96.5,178.77,97.73,178.19L97.73,178.19z"/>
		</g>
	</g>
	<g>
		<g>
			<path class="st0" d="M200.06,123.72c0.22,2.82,0.44,5.65,0.66,8.47c0.22,2.81,0.35,5.65,0.95,8.41c0.54,2.48,4.17,2.28,4.82,0
				c1.21-4.25,1.69-8.73,1.37-13.14c-0.1-1.3-1.08-2.56-2.5-2.5c-1.28,0.06-2.59,1.1-2.5,2.5c0.17,2.5,0.45,5,0.83,7.48
				c0.2,1.32,0.24,2.97,1.2,3.99c1.34,1.43,3.33,1.04,4.63-0.19c1.66-1.56,2.33-3.89,2.8-6.04c0.54-2.49,0.9-5.03,1.12-7.57
				c0.11-1.31-1.23-2.56-2.5-2.5c-1.45,0.06-2.38,1.1-2.5,2.5c-0.18,2.11-0.45,3.97-0.91,6.09c-0.19,0.88-0.4,1.75-0.69,2.6
				c-0.23,0.67,0.19-0.27-0.15,0.35c-0.1,0.19-0.2,0.37-0.31,0.55c-0.04,0.06-0.36,0.46-0.13,0.21c-0.06,0.06-0.11,0.12-0.17,0.19
				c-0.33,0.3-0.23,0.25,0.28-0.15c0.44,0,0.89,0,1.33,0c-0.07-0.02-0.14-0.04-0.22-0.06c0.37,0.21,0.74,0.43,1.1,0.64
				c0.33,0.63,0.43,0.7,0.29,0.21c-0.04-0.2-0.07-0.41-0.11-0.61c-0.07-0.41-0.14-0.82-0.2-1.23c-0.1-0.63-0.2-1.3-0.26-1.8
				c-0.19-1.55-0.34-3.1-0.44-4.65c-1.67,0-3.33,0-5,0c0.3,4.11-0.07,7.89-1.19,11.81c1.61,0,3.21,0,4.82,0
				c-0.51-2.35-0.6-4.84-0.8-7.4c-0.21-2.72-0.42-5.43-0.63-8.15c-0.1-1.3-1.08-2.56-2.5-2.5
				C201.29,121.28,199.95,122.32,200.06,123.72L200.06,123.72z"/>
		</g>
	</g>
	<g>
		<g>
			<path class="st0" d="M193.4,125.08c0.18,6.02,0.48,12.03,0.89,18.03c0.09,1.24,0.89,2.3,2.17,2.46c1.12,0.13,2.54-0.55,2.74-1.79
				c1.22-7.62,2.55-15.23,3.97-22.82c-1.64-0.22-3.27-0.44-4.91-0.66c0.28,3.54,0.31,7.08,0.09,10.63c-0.09,1.35,1.21,2.5,2.5,2.5
				c1.42,0,2.41-1.15,2.5-2.5c0.23-3.54,0.2-7.09-0.09-10.63c-0.1-1.24-0.87-2.3-2.17-2.46c-1.14-0.14-2.51,0.55-2.74,1.79
				c-1.42,7.59-2.74,15.19-3.97,22.82c1.64,0.22,3.27,0.44,4.91,0.66c-0.41-6-0.71-12.02-0.89-18.03
				C198.3,121.87,193.3,121.85,193.4,125.08L193.4,125.08z"/>
		</g>
	</g>
	<g>
		<g>
			<path class="st0" d="M188.97,124.14c-0.12,5.71-0.23,11.42-0.35,17.13c1.64-0.22,3.27-0.44,4.91-0.66
				c-0.8-3.24-0.9-6.55-0.88-9.88c0.02-3.45,0.1-6.9,0.16-10.35c0.04-2.75-4.37-3.49-4.91-0.66c-0.93,4.85-1.83,9.82-3.79,14.38
				c1.52,0.2,3.05,0.4,4.57,0.6c-1.03-4.11-2.05-8.21-3.08-12.32c-0.57-2.26-4.42-2.5-4.82,0c-0.69,4.34-1.41,8.69-2.79,12.87
				c1.61,0,3.21,0,4.82,0c-0.98-3.87-1.81-7.77-2.51-11.7c-0.45-2.55-4.16-2.2-4.82,0c-1.37,4.57-2.74,9.14-4.11,13.71
				c1.52-0.2,3.05-0.4,4.57-0.6c-1.11-1.86-1.2-4.31-1.55-6.41c-0.42-2.48-0.83-4.95-1.25-7.43c-0.4-2.4-4.39-2.37-4.82,0
				c-0.85,4.74-1.71,9.48-2.56,14.21c1.64,0.22,3.27,0.44,4.91,0.66c-0.02-4.37-0.14-9.05,1.66-13.14c-1.52-0.2-3.05-0.4-4.57-0.6
				c1.26,4.25,2.3,8.56,3.13,12.92c0.45,2.4,4.34,2.37,4.82,0c0.79-3.94,1.32-7.93,1.56-11.94c-1.67,0-3.33,0-5,0
				c0.07,4.17,0.16,8.38-0.63,12.5c1.61,0,3.21,0,4.82,0c-1.15-3.96-2.3-7.92-3.45-11.88c-0.56-1.94-3.59-2.6-4.57-0.6
				c-0.93,1.9-1.86,3.79-2.79,5.69c-0.43,0.88-0.86,1.75-1.29,2.63c-0.26,0.53-0.59,1.54-1.08,1.89c1.22,0.5,2.45,1,3.67,1.49
				c-0.97-3.84-1.62-7.72-1.91-11.67c-0.09-1.24-0.88-2.3-2.17-2.46c-1.17-0.14-2.48,0.56-2.74,1.79c-0.93,4.3-1.85,8.61-2.78,12.91
				c1.64,0.22,3.27,0.44,4.91,0.66c-0.16-3.48,0.68-6.77,2.51-9.73c-1.44,0-2.88,0-4.32,0c0.76,1.75,1.18,3.65,1.62,5.5
				c0.54,2.28,4.42,2.48,4.82,0c0.3-1.85,0.59-3.71,0.89-5.56c-1.64-0.22-3.27-0.44-4.91-0.66c-0.06,1.05,0.21,2.03,0.75,2.93
				c1.65,2.76,5.97,0.25,4.32-2.52c-0.16-0.26-0.12,0.57-0.07-0.41c0.17-2.77-4.46-3.47-4.91-0.66c-0.3,1.85-0.59,3.71-0.89,5.56
				c1.61,0,3.21,0,4.82,0c-0.55-2.3-1.17-4.52-2.12-6.69c-0.79-1.81-3.43-1.44-4.32,0c-2.26,3.67-3.39,7.95-3.19,12.26
				c0.12,2.69,4.29,3.54,4.91,0.66c0.93-4.3,1.85-8.61,2.78-12.91c-1.64-0.22-3.27-0.44-4.91-0.66c0.32,4.38,1.01,8.73,2.09,12.99
				c0.37,1.46,2.35,2.43,3.67,1.49c1.92-1.37,2.73-3.39,3.74-5.44c1.07-2.19,2.15-4.38,3.22-6.57c-1.52-0.2-3.05-0.4-4.57-0.6
				c1.15,3.96,2.3,7.92,3.45,11.88c0.65,2.23,4.34,2.53,4.82,0c0.87-4.57,0.88-9.19,0.8-13.83c-0.05-3.24-4.8-3.19-5,0
				c-0.22,3.57-0.68,7.1-1.39,10.61c1.61,0,3.21,0,4.82,0c-0.82-4.36-1.86-8.67-3.13-12.92c-0.56-1.87-3.66-2.67-4.57-0.6
				c-2.19,4.99-2.37,10.29-2.34,15.66c0.01,2.72,4.4,3.52,4.91,0.66c0.85-4.74,1.71-9.48,2.56-14.21c-1.61,0-3.21,0-4.82,0
				c0.44,2.63,0.89,5.27,1.33,7.9c0.41,2.45,0.68,4.95,1.98,7.12c1.12,1.87,3.95,1.46,4.57-0.6c1.37-4.57,2.74-9.14,4.11-13.71
				c-1.61,0-3.21,0-4.82,0c0.69,3.93,1.53,7.83,2.51,11.7c0.63,2.5,4.08,2.25,4.82,0c1.39-4.19,2.1-8.53,2.79-12.87
				c-1.61,0-3.21,0-4.82,0c1.03,4.11,2.05,8.21,3.08,12.32c0.48,1.92,3.7,2.63,4.57,0.6c2.15-5,3.27-10.25,4.29-15.58
				c-1.64-0.22-3.27-0.44-4.91-0.66c-0.12,7.12-0.83,14.57,0.9,21.55c0.69,2.78,4.85,2.12,4.91-0.66
				c0.12-5.71,0.23-11.42,0.35-17.13C194.04,120.92,189.04,120.92,188.97,124.14L188.97,124.14z"/>
		</g>
	</g>
	<g>
		<g>
			<path class="st0" d="M159.6,142.9c0.26,0.56,0.51,1.13,0.75,1.7c-0.08-0.2-0.17-0.4-0.25-0.6c0.81,1.93,1.49,3.91,2.02,5.94
				c0.33,1.26,1.8,2.16,3.08,1.75c1.3-0.42,2.1-1.72,1.75-3.08c-0.74-2.83-1.79-5.58-3.03-8.23c-0.25-0.54-0.94-1-1.49-1.15
				c-0.6-0.16-1.4-0.09-1.93,0.25c-0.53,0.34-1,0.86-1.15,1.49C159.19,141.66,159.3,142.26,159.6,142.9L159.6,142.9z"/>
		</g>
	</g>
	<g>
		<g>
			<path class="st0" d="M156.09,128.64c-0.39,2.57-0.61,5.15-0.58,7.75c0.01,1.31,1.14,2.56,2.5,2.5c1.34-0.06,2.52-1.1,2.5-2.5
				c-0.02-2.14,0.11-4.27,0.39-6.39c-0.03,0.22-0.06,0.44-0.09,0.66c0.03-0.23,0.06-0.46,0.1-0.69c0.1-0.69,0.11-1.3-0.25-1.93
				c-0.3-0.52-0.9-1.01-1.49-1.15c-0.64-0.15-1.36-0.11-1.93,0.25C156.72,127.48,156.18,128.02,156.09,128.64L156.09,128.64z"/>
		</g>
	</g>
	<g>
		<g>
			<path class="st0" d="M155.29,130.63c-0.08,1.75-0.09,3.48,0.23,5.21c0.13,0.7,0.35,1.39,0.49,2.09c0.11,0.51-0.05-0.58,0.01,0.08
				c0.02,0.19,0.03,0.39,0.03,0.58c0.01,0.39-0.02,0.77-0.07,1.16c-0.07,0.59,0.33,1.37,0.73,1.77c0.43,0.43,1.15,0.76,1.77,0.73
				c0.65-0.03,1.32-0.24,1.77-0.73c0.48-0.52,0.65-1.07,0.73-1.77c0.12-0.95,0.05-1.87-0.1-2.82c-0.11-0.71-0.33-1.38-0.48-2.08
				c-0.04-0.17-0.07-0.34-0.1-0.52c-0.1-0.52,0.05,0.55-0.01-0.11c-0.04-0.38-0.06-0.76-0.06-1.14c-0.02-0.82,0.02-1.64,0.06-2.46
				c0.06-1.31-1.19-2.56-2.5-2.5C156.38,128.19,155.35,129.22,155.29,130.63L155.29,130.63z"/>
		</g>
	</g>
	<g>
		<g>
			<path class="st0" d="M157.75,138.38c3.22,0,3.22-5,0-5C154.53,133.38,154.52,138.38,157.75,138.38L157.75,138.38z"/>
		</g>
	</g>
	<g>
		<g>
			<path class="st0" d="M160.25,135.88c0.03-1.83,0.05-3.65,0.08-5.48c0.01-0.64-0.29-1.32-0.73-1.77
				c-0.43-0.43-1.15-0.76-1.77-0.73c-1.37,0.06-2.48,1.1-2.5,2.5c-0.03,1.83-0.05,3.65-0.08,5.48c-0.01,0.64,0.29,1.32,0.73,1.77
				c0.43,0.43,1.15,0.76,1.77,0.73C159.12,138.32,160.23,137.29,160.25,135.88L160.25,135.88z"/>
		</g>
	</g>
	<g>
		<g>
			<path class="st0" d="M155.18,130.79c-0.23,2.6,0.08,5.29,0.85,7.79c0.19,0.61,0.59,1.17,1.15,1.49c0.54,0.31,1.33,0.45,1.93,0.25
				c1.25-0.41,2.16-1.74,1.75-3.08c-0.31-0.98-0.53-1.98-0.67-2.99c0.03,0.22,0.06,0.44,0.09,0.66c-0.18-1.37-0.21-2.75-0.09-4.13
				c0.05-0.6-0.32-1.35-0.73-1.77c-0.43-0.43-1.15-0.76-1.77-0.73c-0.65,0.03-1.32,0.24-1.77,0.73
				C155.44,129.53,155.24,130.09,155.18,130.79L155.18,130.79z"/>
		</g>
	</g>
	<g>
		<g>
			<path class="st0" d="M155.05,134.36c-0.01,0.61-0.02,1.23-0.03,1.84c-0.01,0.34,0.06,0.67,0.22,0.96c0.1,0.31,0.27,0.58,0.52,0.8
				c0.23,0.24,0.49,0.42,0.8,0.52c0.3,0.16,0.62,0.23,0.96,0.22c0.22-0.03,0.44-0.06,0.66-0.09c0.42-0.12,0.79-0.33,1.1-0.64
				c0.13-0.17,0.26-0.34,0.39-0.51c0.23-0.39,0.34-0.81,0.34-1.26c0.01-0.61,0.02-1.23,0.03-1.84c0.01-0.34-0.06-0.67-0.22-0.96
				c-0.1-0.31-0.27-0.58-0.52-0.8c-0.23-0.24-0.49-0.42-0.8-0.52c-0.3-0.16-0.62-0.23-0.96-0.22c-0.22,0.03-0.44,0.06-0.66,0.09
				c-0.42,0.12-0.79,0.33-1.1,0.64c-0.13,0.17-0.26,0.34-0.39,0.51C155.17,133.49,155.05,133.91,155.05,134.36L155.05,134.36z"/>
		</g>
	</g>
	<g>
		<g>
			<path class="st7" d="M117.59,149.47c2.29,2.2,4.57,4.4,6.85,6.6c0.81-1.39,1.62-2.79,2.43-4.18c-5.33-1.29-10.63-3.1-15.49-5.32
				c-1.19-0.54-2.75-0.38-3.42,0.9c-0.68,1.28-0.25,2.62,0.9,3.42c2.34,1.64,4.56,3.65,6.79,5.63c2.44,2.17,4.88,4.35,7.31,6.52
				c1.01,0.9,2.54,0.99,3.54,0c0.97-0.97,0.94-2.56,0-3.54c-2.96-3.07-5.91-6.14-8.87-9.22c-0.94-0.97-2.59-0.94-3.54,0
				c-0.97,0.97-0.94,2.56,0,3.54c2.96,3.07,5.91,6.14,8.87,9.22c1.18-1.18,2.36-2.36,3.54-3.54c-2.52-2.25-5.03-4.49-7.55-6.74
				c-2.44-2.17-4.89-4.32-7.56-6.2c-0.84,1.44-1.68,2.88-2.52,4.32c5.37,2.45,10.94,4.43,16.69,5.82c2.36,0.57,4.28-2.39,2.43-4.18
				c-2.28-2.2-4.57-4.4-6.85-6.6c-0.97-0.94-2.57-0.97-3.54,0C116.64,146.88,116.61,148.53,117.59,149.47L117.59,149.47z"/>
		</g>
	</g>
	<g>
		<g>
			<path class="st7" d="M125.13,145.86c0.36,0.58,0.77,1.12,1.19,1.65c0.29,0.36,0.62,0.69,0.91,1.05
				c-0.13-0.17-0.26-0.34-0.39-0.51c0.08,0.11,0.15,0.22,0.21,0.35c-0.08-0.2-0.17-0.4-0.25-0.6c0.03,0.07,0.04,0.14,0.06,0.21
				c-0.03-0.22-0.06-0.44-0.09-0.66c0.01,0.06,0.01,0.12,0,0.17c-0.01,0.34,0.06,0.67,0.22,0.96c0.1,0.31,0.27,0.58,0.52,0.8
				c0.23,0.24,0.49,0.42,0.8,0.52c0.3,0.16,0.62,0.23,0.96,0.22c0.65-0.03,1.32-0.24,1.77-0.73c0.13-0.17,0.26-0.34,0.39-0.51
				c0.23-0.39,0.34-0.81,0.34-1.26c0.05-0.6-0.17-1.2-0.43-1.72c-0.17-0.34-0.44-0.64-0.7-0.93c-0.29-0.33-0.59-0.65-0.85-1
				c0.13,0.17,0.26,0.34,0.39,0.51c-0.26-0.33-0.5-0.68-0.72-1.04c-0.34-0.54-0.87-0.98-1.49-1.15c-0.33-0.1-0.66-0.12-1-0.04
				c-0.33,0.02-0.64,0.11-0.93,0.3c-0.53,0.34-1,0.86-1.15,1.49C124.74,144.58,124.78,145.28,125.13,145.86L125.13,145.86z"/>
		</g>
	</g>
	<g>
		<g>
			<path class="st7" d="M128.45,146.9c-0.46-0.17-0.92-0.34-1.37-0.53c0.2,0.08,0.4,0.17,0.6,0.25c-0.87-0.37-1.68-0.84-2.43-1.41
				c0.17,0.13,0.34,0.26,0.51,0.39c-0.35-0.27-0.67-0.55-0.99-0.86c-0.59,1.42-1.18,2.85-1.77,4.27c0.07,0,0.14,0.01,0.21,0.01
				c-0.22-0.03-0.44-0.06-0.66-0.09c0.14,0.02,0.27,0.06,0.41,0.11c-0.2-0.08-0.4-0.17-0.6-0.25c0.13,0.06,0.25,0.13,0.37,0.21
				c-0.17-0.13-0.34-0.26-0.51-0.39c0.11,0.09,0.21,0.19,0.3,0.3c-0.13-0.17-0.26-0.34-0.39-0.51c0.03,0.04,0.06,0.08,0.08,0.12
				c0.31,0.46,0.68,0.8,1.2,1.02c0.5,0.21,1.1,0.3,1.63,0.13c1.05-0.34,1.84-1.28,1.84-2.41c0-0.08,0-0.16,0-0.25
				c0-0.64-0.28-1.31-0.73-1.77c-0.43-0.43-1.15-0.76-1.77-0.73c-0.65,0.03-1.32,0.24-1.77,0.73c-0.45,0.49-0.74,1.09-0.73,1.77
				c0,0.08,0,0.16,0,0.25c1.55-0.42,3.11-0.84,4.66-1.26c-0.39-0.59-0.86-1.1-1.49-1.44c-0.64-0.35-1.31-0.53-2.04-0.54
				c-0.42-0.01-0.9,0.13-1.26,0.34c-0.47,0.28-0.81,0.7-1.02,1.2c-0.38,0.91-0.21,2.03,0.52,2.73c0.79,0.77,1.69,1.46,2.65,2.02
				c1.02,0.6,2.13,1.01,3.24,1.42c0.58,0.21,1.41,0.05,1.93-0.25c0.52-0.3,1.01-0.9,1.15-1.49c0.15-0.64,0.11-1.36-0.25-1.93
				C129.57,147.48,129.09,147.13,128.45,146.9L128.45,146.9z"/>
		</g>
	</g>
	<g>
		<g>
			<path class="st7" d="M132.19,145.86c-1.1-0.99-2.3-1.89-3.58-2.64c-0.29-0.18-0.6-0.28-0.93-0.3c-0.33-0.07-0.66-0.06-1,0.04
				c-0.33,0.08-0.61,0.23-0.85,0.45c-0.27,0.18-0.49,0.41-0.64,0.7c-0.31,0.58-0.46,1.28-0.25,1.93c0.2,0.62,0.58,1.16,1.15,1.49
				c0.69,0.41,1.36,0.86,2,1.35c-0.17-0.13-0.34-0.26-0.51-0.39c0.37,0.29,0.73,0.59,1.08,0.9c0.23,0.24,0.49,0.42,0.8,0.52
				c0.3,0.16,0.62,0.23,0.96,0.22c0.34,0.01,0.67-0.06,0.96-0.22c0.31-0.1,0.58-0.27,0.8-0.52c0.44-0.48,0.76-1.1,0.73-1.77
				C132.9,146.99,132.69,146.31,132.19,145.86L132.19,145.86z"/>
		</g>
	</g>
	<g>
		<g>
			<path class="st7" d="M128.38,148.27c3.22,0,3.22-5,0-5C125.16,143.27,125.16,148.27,128.38,148.27L128.38,148.27z"/>
		</g>
	</g>
	<g>
		<g>
			<path class="st7" d="M105.8,165.52c3.22,0,3.22-5,0-5C102.58,160.52,102.58,165.52,105.8,165.52L105.8,165.52z"/>
		</g>
	</g>
	<g>
		<g>
			<path d="M90.18,188.56c3.22,0,3.22-5,0-5C86.97,183.56,86.96,188.56,90.18,188.56L90.18,188.56z"/>
		</g>
	</g>
	<g>
		<g>
			<path d="M90.67,188.57c3.22,0,3.22-5,0-5C87.45,183.57,87.45,188.57,90.67,188.57L90.67,188.57z"/>
		</g>
	</g>
	<g>
		<g>
			<path d="M131.96,144.47c3.22,0,3.22-5,0-5C128.74,139.47,128.74,144.47,131.96,144.47L131.96,144.47z"/>
		</g>
	</g>
	<g>
		<g>
			<path class="st7" d="M100.3,182.31c3.22,0,3.22-5,0-5C97.09,177.31,97.08,182.31,100.3,182.31L100.3,182.31z"/>
		</g>
	</g>
	<g>
		<g>
			<path class="st1" d="M252.02,156.78c2.04-1.2,4.09-2.38,6.14-3.55c0.54-0.31,0.98-0.9,1.15-1.49c0.16-0.6,0.09-1.4-0.25-1.93
				c-0.74-1.15-2.2-1.59-3.42-0.9c-2.06,1.16-4.11,2.35-6.14,3.55c-0.54,0.32-0.98,0.89-1.15,1.49c-0.16,0.6-0.09,1.4,0.25,1.93
				C249.33,157.01,250.81,157.49,252.02,156.78L252.02,156.78z"/>
		</g>
	</g>
	<g>
		<g>
			<path class="st1" d="M238.39,144.72c3.22,0,3.22-5,0-5C235.18,139.72,235.17,144.72,238.39,144.72L238.39,144.72z"/>
		</g>
	</g>
	<g>
		<g>
			<path class="st1" d="M237.68,145.36c3.22,0,3.22-5,0-5C234.46,140.36,234.46,145.36,237.68,145.36L237.68,145.36z"/>
		</g>
	</g>
	<g>
		<g>
			<path class="st1" d="M235.65,147.13c3.22,0,3.22-5,0-5C232.43,142.13,232.43,147.13,235.65,147.13L235.65,147.13z"/>
		</g>
	</g>
	<g>
		<g>
			<path class="st1" d="M236.26,146.32c3.22,0,3.22-5,0-5C233.04,141.32,233.03,146.32,236.26,146.32L236.26,146.32z"/>
		</g>
	</g>
	<g>
		<g>
			<path class="st1" d="M240.3,145.13c4.65,3.14,8.99,6.69,13.01,10.61c0.59-1.42,1.18-2.85,1.77-4.27
				c-0.59-0.01-1.26-0.38-1.8-0.58c-0.64-0.24-1.29-0.49-1.93-0.74c-1.2-0.48-2.39-1-3.56-1.57c-2.47-1.19-4.84-2.58-7.06-4.2
				c-0.84,1.44-1.68,2.88-2.52,4.32c7.27,4.73,14.04,10.15,20.26,16.19c1.65,1.6,4.09,0.34,4.27-1.77c0.11-1.28-0.55-2.22-1.14-3.27
				c-0.52-0.93-0.84-1.96-1.37-2.89c-1.1-1.95-2.88-3.27-4.66-4.55c-0.64,1.52-1.28,3.05-1.93,4.57c2.82,0.9,5.5,2.1,8.07,3.58
				c2.79,1.61,5.31-2.71,2.52-4.32c-2.93-1.69-6.04-3.05-9.26-4.08c-1.17-0.38-2.51,0.34-2.95,1.45c-0.49,1.22-0.02,2.38,1.02,3.12
				c1.08,0.77,2.2,1.57,2.87,2.75c0.4,0.7,0.66,1.46,1.01,2.18c0.14,0.3,0.29,0.6,0.46,0.88c0.1,0.17,0.2,0.33,0.31,0.49
				c0.24,0.4,0.26,0.43,0.05,0.09c1.42-0.59,2.85-1.18,4.27-1.77c-6.52-6.33-13.66-12.02-21.28-16.97c-1.13-0.74-2.76-0.23-3.42,0.9
				c-0.74,1.27-0.19,2.62,0.9,3.42c2.44,1.79,5.06,3.28,7.81,4.55c1.44,0.67,2.91,1.29,4.39,1.87c1.49,0.59,3.04,1.33,4.67,1.35
				c2.15,0.02,3.32-2.76,1.77-4.27c-4.32-4.21-9.03-8.01-14.03-11.39c-1.12-0.76-2.77-0.21-3.42,0.9
				C238.69,142.94,239.18,144.37,240.3,145.13L240.3,145.13z"/>
		</g>
	</g>
	<g>
		<g>
			<path class="st1" d="M275.3,180.92c3.22,0,3.22-5,0-5C272.08,175.92,272.07,180.92,275.3,180.92L275.3,180.92z"/>
		</g>
	</g>
	<g>
		<g>
			<path class="st1" d="M275.35,180.92c3.22,0,3.22-5,0-5C272.13,175.92,272.13,180.92,275.35,180.92L275.35,180.92z"/>
		</g>
	</g>
	<g>
		<g>
			<path class="st1" d="M276.18,179.96c3.22,0,3.22-5,0-5C272.96,174.96,272.96,179.96,276.18,179.96L276.18,179.96z"/>
		</g>
	</g>
	<g>
		<g>
			<path class="st1" d="M276.01,180.23c3.22,0,3.22-5,0-5C272.79,175.23,272.79,180.23,276.01,180.23L276.01,180.23z"/>
		</g>
	</g>
	<g>
		<g>
			<path class="st1" d="M273.17,182.03c3.22,0,3.22-5,0-5C269.95,177.03,269.94,182.03,273.17,182.03L273.17,182.03z"/>
		</g>
	</g>
	<g>
		<g>
			<path class="st1" d="M274.42,181.29c3.22,0,3.22-5,0-5C271.21,176.29,271.2,181.29,274.42,181.29L274.42,181.29z"/>
		</g>
	</g>
	<g>
		<g>
			<path class="st1" d="M275.43,173.7c-3.29-3.53-6.25-7.33-8.87-11.4c-1.14,1.14-2.28,2.28-3.42,3.42c1.35,0.72,2.41,1.9,3.5,3.03
				c0.95,0.99,2.29,2.18,2.79,3.39c0.38-0.94,0.77-1.88,1.15-2.82c1.17-0.63,1.05,0.16,0.69-0.31c0,0-0.26-0.19-0.26-0.19
				c-0.47-0.36-0.9-0.77-1.32-1.18c-0.86-0.82-1.69-1.66-2.5-2.53c-0.78-0.83-1.53-1.68-2.26-2.56c-0.6-0.72-1.48-1.58-1.6-2.41
				c-1.22,0.94-2.45,1.88-3.67,2.82c1.18,0.59,2.25,1.55,3.25,2.38c1.07,0.89,2.17,1.9,2.98,2.99c0.94-1.22,1.88-2.45,2.82-3.67
				c0.06,0.04,0.11,0.09,0.15,0.15c-0.14-0.13-0.27-0.26-0.39-0.4c-0.17-0.19-0.23-0.29-0.39-0.5c-0.51-0.66-1.01-1.32-1.51-1.98
				c-1.01-1.32-2.01-2.64-3.02-3.96c-0.76-0.99-1.89-1.57-3.12-1.02c-1.05,0.46-1.9,1.77-1.45,2.95c1.37,3.58,2.54,7.22,3.49,10.93
				c0.5,1.95,1.08,3.59,2.35,5.18c1.16,1.44,2.41,2.78,3.94,3.85c1.44,1,3.15-0.11,3.67-1.49c0.06-0.17,0.13-0.34,0.19-0.51
				c0.48-1.26-0.53-2.74-1.75-3.08c-1.4-0.39-2.6,0.48-3.08,1.75c-0.06,0.17-0.13,0.34-0.19,0.51c1.22-0.5,2.45-1,3.67-1.49
				c-1-0.7-2.14-1.98-2.93-3.06c-0.79-1.1-0.97-2.63-1.33-3.99c-0.9-3.36-1.98-6.67-3.23-9.92c-1.52,0.64-3.05,1.28-4.57,1.93
				c1.22,1.6,2.44,3.2,3.67,4.8c1.24,1.62,2.37,3.64,4.48,4.18c0.97,0.25,2.03-0.09,2.63-0.9c0.55-0.74,0.79-1.97,0.2-2.78
				c-1.1-1.49-2.34-2.81-3.76-4c-1.31-1.09-2.73-2.4-4.26-3.17c-0.91-0.45-1.95-0.46-2.78,0.2c-0.85,0.68-1.05,1.58-0.9,2.63
				c0.25,1.71,1.61,3.08,2.66,4.35c1.02,1.23,2.08,2.41,3.18,3.56c2.14,2.22,5.34,6.07,8.75,4.24c0.87-0.47,1.55-1.84,1.15-2.82
				c-0.86-2.09-2.29-3.73-3.83-5.35c-1.41-1.49-2.92-3.08-4.75-4.06c-2.1-1.12-4.84,1.22-3.42,3.42c2.84,4.41,6.07,8.57,9.65,12.41
				c0.92,0.99,2.6,0.93,3.54,0C276.41,176.25,276.35,174.69,275.43,173.7L275.43,173.7z"/>
		</g>
	</g>
	<g>
		<g>
			<path class="st2" d="M288.23,208.01c-0.92,0.1-1.84,0.1-2.76-0.02c0.22,0.03,0.44,0.06,0.66,0.09c-0.33-0.04-0.65-0.1-0.98-0.18
				c-0.65-0.15-1.34-0.09-1.93,0.25c-0.52,0.3-1.01,0.9-1.15,1.49c-0.15,0.64-0.11,1.36,0.25,1.93c0.34,0.53,0.86,1.01,1.49,1.15
				c1.44,0.32,2.93,0.45,4.4,0.29c0.34,0.01,0.67-0.06,0.96-0.22c0.31-0.1,0.58-0.27,0.8-0.52c0.43-0.43,0.76-1.15,0.73-1.77
				c-0.03-0.65-0.24-1.32-0.73-1.77C289.55,208.33,288.88,207.94,288.23,208.01L288.23,208.01z"/>
		</g>
	</g>
	<g>
		<g>
			<path class="st2" d="M288.83,213.05c3.22,0,3.22-5,0-5C285.62,208.05,285.61,213.05,288.83,213.05L288.83,213.05z"/>
		</g>
	</g>
	<g>
		<g>
			<path class="st2" d="M282.83,212.1c3.22,0,3.22-5,0-5C279.61,207.1,279.61,212.1,282.83,212.1L282.83,212.1z"/>
		</g>
	</g>
	<g>
		<g>
			<path class="st2" d="M281.6,210.78c3.22,0,3.22-5,0-5C278.38,205.78,278.38,210.78,281.6,210.78L281.6,210.78z"/>
		</g>
	</g>
	<g>
		<g>
			<path class="st2" d="M285.32,216.45c2.08,0.07,4.17,0.14,6.25,0.21c-0.59-1.42-1.18-2.85-1.77-4.27c0.26-0.12,0.32-0.16,0.19-0.1
				c-0.26,0.02-0.53,0.04-0.79,0.06c-0.51,0.05-1.03,0.12-1.53,0.2c-1.01,0.16-2.01,0.41-2.97,0.76c-1.2,0.44-2.44,0.93-2.85,2.26
				c-0.36,1.19,0.06,2.32,0.96,3.11c0.86,0.76,2.09,1.04,3.16,1.39c1.04,0.35,2.08,0.68,3.13,0.99c2.1,0.62,4.21,1.17,6.34,1.66
				c0.22-1.64,0.44-3.27,0.66-4.91c-4.48-0.32-8.92,0.35-13.33,1.01c-2.43,0.36-2.35,4.39,0,4.82c3.92,0.73,7.83,1.45,11.75,2.18
				c0-1.61,0-3.21,0-4.82c-1.36,0.44-2.86,0.27-4.27,0.45c-1.64,0.2-3.23,0.55-4.79,1.09c-2.15,0.74-2.59,4.3,0,4.82
				c4.47,0.9,8.97,1.7,13.48,2.39c0-1.61,0-3.21,0-4.82c-6.16,1.96-12.41,3.96-18.91,4.31c-1.35,0.07-2.5,1.1-2.5,2.5
				c0,1.49,1.15,2.34,2.5,2.5c5.1,0.62,10.23,0.93,15.37,0.92c3.26,0,3.16-4.73,0-5c-4.02-0.34-8.17-0.72-11.75-2.73
				c0,1.44,0,2.88,0,4.32c1.55-0.73,3.76-0.64,5.42-0.74c2.19-0.13,4.38-0.16,6.57-0.09c0-1.67,0-3.33,0-5
				c-5.32,0.02-10.63,0.86-15.7,2.49c-2.06,0.67-2.46,3.41-0.6,4.57c3.65,2.29,7.23,4.84,11.27,6.41c2.66,1.04,4.37-3.23,1.93-4.57
				c-1.44-0.79-2.93-0.74-4.53-0.64c-1.67,0.1-3.33,0.24-4.99,0.42c-1.24,0.14-2.3,0.85-2.46,2.17c-0.14,1.2,0.56,2.43,1.79,2.74
				c4.1,1.04,8.21,2.08,12.31,3.12c0-1.61,0-3.21,0-4.82c-2.36,0.41-4.71,0.9-7.03,1.48c-1.96,0.49-5.03,0.8-6.28,2.55
				c-0.82,1.15-0.78,2.81,0.25,3.84c0.81,0.81,1.84,1,2.92,1.16c1.12,0.17,2.24,0.34,3.36,0.51c0.64,0.1,1.28,0.19,1.92,0.29
				c0.32,0.05,0.64,0.1,0.96,0.14c0.51,0.14,0.46,0.04-0.15-0.31c-0.11-0.42-0.23-0.84-0.34-1.26c-0.01,0.11-0.01,0.22-0.02,0.32
				c0.83-0.83,1.67-1.67,2.5-2.5c-2.81,0.08-5.5-0.27-8.19-1.07c-0.22,1.64-0.44,3.27-0.66,4.91c2.34,0.04,4.62,0.28,6.91,0.76
				c0-1.61,0-3.21,0-4.82c-1.92,0.76-3.85,1.51-5.77,2.27c-1.85,0.73-4.08,1.95-3.41,4.38c0.62,2.25,2.96,2.39,4.89,2.64
				c0.9,0.12,1.81,0.21,2.72,0.26c0.46,0.03,0.94,0.01,1.39,0.09c0.37,0.06,0.06-0.05,0.05-0.07c0.69,3.14,5.51,1.81,4.82-1.33
				c-0.5-2.29-2.59-3.38-4.75-3.6c-0.96-0.1-1.92-0.11-2.88-0.2c-0.62-0.06-2.03-0.08-2.45-0.35c0.3,0.3,0.6,0.6,0.9,0.9
				c-0.04-0.09-0.08-0.18-0.12-0.27c0.11,0.42,0.23,0.84,0.34,1.26c0.01-0.1,0.02-0.2,0.03-0.3c-0.11,0.42-0.23,0.84-0.34,1.26
				c-0.72,0.46-0.75,0.54-0.1,0.23c0.31-0.12,0.62-0.24,0.92-0.36c0.54-0.21,1.08-0.42,1.62-0.64c1.15-0.45,2.31-0.91,3.46-1.36
				c1.04-0.41,1.84-1.23,1.84-2.41c0-1.05-0.77-2.19-1.84-2.41c-2.71-0.56-5.47-0.89-8.24-0.93c-2.86-0.05-3.35,4.12-0.66,4.91
				c3.08,0.91,6.3,1.34,9.52,1.24c1.4-0.04,2.43-1.12,2.5-2.5c0.15-2.8-2.41-3.46-4.6-3.79c-1.12-0.17-2.24-0.34-3.36-0.51
				c-0.99-0.15-2.09-0.18-3.02-0.55c0.37,0.21,0.74,0.43,1.1,0.64c-0.08-0.06-0.16-0.12-0.23-0.19c0.21,0.37,0.43,0.74,0.64,1.1
				c-0.04-0.09-0.07-0.18-0.11-0.27c0,0.44,0,0.89,0,1.33c0.02-0.1,0.04-0.19,0.06-0.29c-0.21,0.37-0.43,0.74-0.64,1.1
				c-0.43,0.18-0.38,0.17,0.18-0.01c0.15-0.04,0.31-0.09,0.46-0.13c0.46-0.13,0.92-0.26,1.39-0.39c1-0.27,2.01-0.53,3.02-0.77
				c1.94-0.46,3.9-0.86,5.87-1.2c2.49-0.43,2.28-4.24,0-4.82c-4.1-1.04-8.21-2.08-12.31-3.12c-0.22,1.64-0.44,3.27-0.66,4.91
				c1.34-0.15,2.69-0.27,4.04-0.36c0.63-0.04,1.27-0.08,1.9-0.11c0.28-0.01,0.8-0.13,1.05,0.01c0.64-1.52,1.28-3.05,1.93-4.57
				c-3.58-1.39-6.83-3.87-10.07-5.9c-0.2,1.52-0.4,3.05-0.6,4.57c4.67-1.51,9.46-2.29,14.37-2.31c3.22-0.01,3.21-4.9,0-5
				c-2.52-0.08-5.03-0.04-7.54,0.15c-2.38,0.18-4.79,0.33-6.97,1.36c-1.72,0.81-1.54,3.45,0,4.32c4.38,2.46,9.35,2.99,14.27,3.41
				c0-1.67,0-3.33,0-5c-5.14,0.01-10.27-0.3-15.37-0.92c0,1.67,0,3.33,0,5c6.97-0.38,13.63-2.39,20.24-4.49
				c2.14-0.68,2.61-4.42,0-4.82c-4.51-0.69-9-1.49-13.48-2.39c0,1.61,0,3.21,0,4.82c1.43-0.49,2.9-0.88,4.4-1.02
				c1.56-0.14,3.14-0.04,4.66-0.52c2.17-0.7,2.58-4.34,0-4.82c-3.92-0.73-7.83-1.45-11.75-2.18c0,1.61,0,3.21,0,4.82
				c3.98-0.6,7.97-1.12,12-0.83c2.81,0.2,3.4-4.28,0.66-4.91c-1.9-0.44-3.79-0.92-5.67-1.46c-0.9-0.26-1.8-0.53-2.69-0.82
				c-0.45-0.14-0.89-0.29-1.33-0.44c-0.22-0.07-0.44-0.15-0.66-0.23c-0.58-0.28-0.6-0.19-0.04,0.27c0.08,0.64,0.17,1.28,0.25,1.93
				c0.02-0.08,0.04-0.16,0.05-0.25c-0.38,0.5-0.77,1-1.15,1.49c2.36-1.59,5.7-0.38,7.81-2.47c1.58-1.57,0.36-4.2-1.77-4.27
				c-2.08-0.07-4.17-0.14-6.25-0.21C282.1,211.34,282.1,216.34,285.32,216.45L285.32,216.45z"/>
		</g>
	</g>
	<g>
		<g>
			<path class="st2" d="M287.7,262.59c3.22,0,3.22-5,0-5C284.49,257.59,284.48,262.59,287.7,262.59L287.7,262.59z"/>
		</g>
	</g>
	<g>
		<g>
			<path class="st2" d="M287.59,262.7c3.22,0,3.22-5,0-5C284.38,257.7,284.37,262.7,287.59,262.7L287.59,262.7z"/>
		</g>
	</g>
	<g>
		<g>
			<path class="st2" d="M286.51,262.41c3.22,0,3.22-5,0-5C283.3,257.41,283.29,262.41,286.51,262.41L286.51,262.41z"/>
		</g>
	</g>
	<g>
		<g>
			<path class="st2" d="M286.94,262.64c3.22,0,3.22-5,0-5C283.73,257.64,283.72,262.64,286.94,262.64L286.94,262.64z"/>
		</g>
	</g>
	<g>
		<g>
			<path class="st2" d="M283.59,262.21c3.22,0,3.22-5,0-5C280.37,257.21,280.36,262.21,283.59,262.21L283.59,262.21z"/>
		</g>
	</g>
	<g>
		<g>
			<path class="st2" d="M284.94,262.28c3.22,0,3.22-5,0-5C281.72,257.28,281.72,262.28,284.94,262.28L284.94,262.28z"/>
		</g>
	</g>
	<g>
		<g>
			<path class="st2" d="M284.67,262.44c3.22,0,3.22-5,0-5C281.45,257.44,281.45,262.44,284.67,262.44L284.67,262.44z"/>
		</g>
	</g>
	<g>
		<g>
			<path class="st2" d="M285.92,262.46c3.22,0,3.22-5,0-5C282.7,257.46,282.69,262.46,285.92,262.46L285.92,262.46z"/>
		</g>
	</g>
	<g>
		<g>
			<path class="st2" d="M285.86,262.57c3.22,0,3.22-5,0-5C282.64,257.57,282.64,262.57,285.86,262.57L285.86,262.57z"/>
		</g>
	</g>
	<g>
		<g>
			<path class="st2" d="M283.36,258.79c3.11-0.14,6.23-0.16,9.34-0.06c2.52,0.08,3.34-3.42,1.26-4.66
				c-4.45-2.64-9.68-2.84-14.71-2.77c0,1.67,0,3.33,0,5c1.64-0.13,3.29-0.17,4.94-0.1c0.78,0.03,1.56,0.09,2.33,0.18
				c0.22,0.02,0.43,0.05,0.65,0.07c0.47,0.05-0.58-0.09,0.24,0.03c0.43,0.06,0.86,0.13,1.28,0.21c1.28,0.23,2.76-0.35,3.08-1.75
				c0.28-1.22-0.37-2.83-1.75-3.08c-3.56-0.64-7.16-0.87-10.77-0.57c-1.3,0.11-2.56,1.07-2.5,2.5c0.06,1.34,1.1,2.52,2.5,2.5
				c1.2-0.01,2.4-0.02,3.59,0.01c0.51,0.02,1.03,0.04,1.54,0.08c0.34,0.02,0.68,0.05,1.02,0.09c0.1,0.01,0.82,0.11,0.34,0.04
				c1.03,0.15,2.04,0.37,3.03,0.68c0.27,0.08,0.53,0.17,0.79,0.27c0.09,0.03,0.82,0.35,0.4,0.15c0.51,0.23,1,0.49,1.48,0.77
				c0.42-1.55,0.84-3.11,1.26-4.66c-3.11-0.1-6.23-0.08-9.34,0.06c-1.3,0.06-2.56,1.11-2.5,2.5
				C280.92,257.59,281.96,258.85,283.36,258.79L283.36,258.79z"/>
		</g>
	</g>
	<g>
		<g>
			<path class="st3" d="M260.68,300.77c1.82,5.26,4.68,10.06,8.45,14.17c0.89,0.97,2.65,0.97,3.54,0c0.95-1.03,0.95-2.51,0-3.54
				c-0.43-0.46-0.84-0.94-1.25-1.42c-0.19-0.23-0.38-0.46-0.56-0.69c-0.03-0.04-0.31-0.4-0.15-0.18c0.16,0.21-0.11-0.15-0.14-0.19
				c-0.75-1.01-1.45-2.06-2.1-3.14c-0.63-1.05-1.2-2.13-1.72-3.23c-0.13-0.27-0.25-0.54-0.37-0.81c-0.06-0.14-0.12-0.27-0.18-0.41
				c0.1,0.23,0.08,0.19,0-0.02c-0.25-0.62-0.48-1.24-0.7-1.87c-0.43-1.23-1.73-2.18-3.08-1.75
				C261.21,298.09,260.22,299.44,260.68,300.77L260.68,300.77z"/>
		</g>
	</g>
	<g>
		<g>
			<path class="st3" d="M273.75,290.4c-0.4-0.19-0.77-0.43-1.12-0.7c0.17,0.13,0.34,0.26,0.51,0.39c-0.85-0.67-1.55-1.5-2.2-2.35
				c0.13,0.17,0.26,0.34,0.39,0.51c-0.14-0.18-0.27-0.36-0.41-0.53c-0.16-0.29-0.37-0.53-0.64-0.7c-0.24-0.22-0.52-0.37-0.85-0.45
				c-0.33-0.1-0.66-0.12-1-0.04c-0.33,0.02-0.64,0.11-0.93,0.3c-0.53,0.34-1,0.86-1.15,1.49c-0.03,0.22-0.06,0.44-0.09,0.66
				c0,0.45,0.12,0.87,0.34,1.26c0.66,0.87,1.31,1.75,2.06,2.53c0.45,0.46,0.93,0.85,1.44,1.24c0.35,0.27,0.72,0.51,1.12,0.7
				c0.29,0.18,0.6,0.28,0.93,0.3c0.33,0.07,0.66,0.06,1-0.04c0.58-0.16,1.21-0.61,1.49-1.15c0.31-0.58,0.46-1.28,0.25-1.93
				C274.71,291.3,274.33,290.68,273.75,290.4L273.75,290.4z"/>
		</g>
	</g>
	<g>
		<g>
			<path class="st3" d="M272.66,295.02c3.22,0,3.22-5,0-5C269.44,290.02,269.44,295.02,272.66,295.02L272.66,295.02z"/>
		</g>
	</g>
	<g>
		<g>
			<path class="st3" d="M274.37,290.96c-0.21-0.39-0.5-0.73-0.77-1.07c-0.16-0.2-0.33-0.39-0.5-0.57c-0.34-0.36-0.7-0.71-1-1.11
				c0.13,0.17,0.26,0.34,0.39,0.51c-0.18-0.24-0.34-0.49-0.46-0.77c0.08,0.2,0.17,0.4,0.25,0.6c-0.02-0.04-0.03-0.08-0.05-0.13
				c-0.08-0.33-0.23-0.61-0.45-0.85c-0.18-0.27-0.41-0.49-0.7-0.64c-0.29-0.18-0.6-0.28-0.93-0.3c-0.33-0.07-0.66-0.06-1,0.04
				c-0.6,0.2-1.19,0.57-1.49,1.15c-0.3,0.57-0.48,1.3-0.25,1.93c0.17,0.45,0.35,0.9,0.62,1.29c0.27,0.4,0.58,0.78,0.9,1.14
				c0.39,0.43,0.81,0.82,1.16,1.28c-0.13-0.17-0.26-0.34-0.39-0.51c0.13,0.17,0.25,0.35,0.35,0.53c0.16,0.29,0.37,0.53,0.64,0.7
				c0.24,0.22,0.52,0.37,0.85,0.45c0.33,0.1,0.66,0.12,1,0.04c0.33-0.02,0.64-0.11,0.93-0.3c0.53-0.34,1-0.86,1.15-1.49
				C274.77,292.22,274.7,291.57,274.37,290.96L274.37,290.96z"/>
		</g>
	</g>
	<g>
		<g>
			<path class="st3" d="M269.21,289.55c3.22,0,3.22-5,0-5C266,284.55,265.99,289.55,269.21,289.55L269.21,289.55z"/>
		</g>
	</g>
	<g>
		<g>
			<path class="st3" d="M269.34,288.47c3.22,0,3.22-5,0-5C266.12,283.47,266.11,288.47,269.34,288.47L269.34,288.47z"/>
		</g>
	</g>
	<g>
		<g>
			<path class="st3" d="M272.07,295.62c-2.04-1.78-4.08-3.55-6.12-5.33c-0.37,1.39-0.74,2.79-1.1,4.18
				c-0.41,0.11-0.79,0.06-1.13-0.14c0.11,0.05,0.21,0.11,0.32,0.16c0.22,0.11,0.44,0.23,0.67,0.35c0.44,0.23,0.88,0.47,1.32,0.71
				c0.75,0.41,1.5,0.82,2.22,1.27c0.33,0.21,0.64,0.43,0.96,0.65c0.21,0.16,0.16,0.12-0.14-0.11c0.08,0.06,0.16,0.13,0.23,0.19
				c0.15,0.13,0.3,0.27,0.45,0.41c0.14,0.14,0.28,0.29,0.41,0.44c0.07,0.07,0.13,0.15,0.19,0.23c-0.24-0.31-0.28-0.36-0.12-0.15
				c0.21,0.34,0.41,0.68,0.57,1.05c0.94-1.22,1.88-2.45,2.82-3.67c-3.42-0.94-7.01-1.34-10.55-1.15c-1.25,0.07-2.29,0.9-2.46,2.17
				c-0.15,1.12,0.56,2.55,1.79,2.74c0.16,0.03,0.31,0.07,0.47,0.11c0.49,0.12-0.44-0.27,0,0c0.23,0.14,0.47,0.28,0.7,0.44
				c0.28,0.19,0.54,0.4,0.81,0.6c0.06,0.05,0.47,0.36,0.16,0.12c-0.31-0.24,0.17,0.13,0.23,0.18c1.02,0.81,2,1.68,2.82,2.7
				c0.37-1.39,0.74-2.79,1.1-4.18c-0.2,0.06-0.18,0.07,0.05,0.03c0.13-0.03,0.25-0.03,0.37,0.01c0.23,0.04,0.25,0.04,0.04,0
				c0.11,0.05,0.21,0.1,0.32,0.14c0,0.01-0.5-0.37-0.15-0.06c0.31,0.27-0.1-0.1-0.13-0.13c-0.51-0.47-1.01-0.9-1.56-1.32
				c-0.99-0.74-2.12-1.27-3.3-1.65c-1.24-0.41-2.79,0.47-3.08,1.75c-0.31,1.37,0.41,2.64,1.75,3.08c0.16,0.05,0.31,0.11,0.47,0.16
				c0.43,0.15-0.34-0.17-0.06-0.03c0.27,0.14,0.54,0.26,0.81,0.42c0.24,0.14,0.46,0.3,0.69,0.45c0.47,0.31-0.41-0.36,0.02,0.01
				c0.1,0.09,0.21,0.18,0.31,0.27c0.54,0.49,1.06,1.03,1.71,1.37c0.92,0.47,2.07,0.7,3.07,0.32c0.84-0.32,1.5-0.85,1.75-1.75
				c0.26-0.93-0.07-1.72-0.64-2.43c-0.9-1.11-1.98-2.04-3.1-2.91c-1.28-1-2.64-2.25-4.3-2.52c-0.22,1.64-0.44,3.27-0.66,4.91
				c1.63-0.09,3.27-0.05,4.89,0.12c0.19,0.02,0.37,0.04,0.56,0.06c0.58,0.07-0.45-0.07,0.08,0.01c0.43,0.07,0.87,0.14,1.3,0.22
				c0.8,0.15,1.6,0.34,2.39,0.56c0.97,0.27,2.02-0.11,2.63-0.9c0.67-0.86,0.61-1.82,0.2-2.78c-0.86-2-2.67-3.47-4.47-4.59
				c-0.87-0.54-1.77-1.02-2.66-1.5c-1.39-0.75-2.8-1.7-4.45-1.27c-1.74,0.45-2.53,2.93-1.1,4.18c2.04,1.78,4.08,3.55,6.12,5.33
				c0.99,0.86,2.58,1.04,3.54,0C272.93,298.21,273.12,296.54,272.07,295.62L272.07,295.62z"/>
		</g>
	</g>
	<g>
		<g>
			<path class="st3" d="M233.84,325.65c3.22,0,3.22-5,0-5C230.62,320.65,230.62,325.65,233.84,325.65L233.84,325.65z"/>
		</g>
	</g>
	<g>
		<g>
			<path class="st3" d="M234.78,328c3.22,0,3.22-5,0-5C231.57,323,231.56,328,234.78,328L234.78,328z"/>
		</g>
	</g>
	<g>
		<g>
			<path class="st3" d="M234.36,326.96c3.22,0,3.22-5,0-5C231.15,321.96,231.14,326.96,234.36,326.96L234.36,326.96z"/>
		</g>
	</g>
	<g>
		<g>
			<path class="st3" d="M237.78,326.47c4.26-2.03,8.22-4.64,11.8-7.71c1.6-1.38,3.73-2.97,4.64-4.93c0.45-0.98,0.82-1.55,1.66-2.25
				c0.92-0.77,1.94-1.42,2.97-2.03c2.76-1.65,0.25-5.97-2.52-4.32c-2.08,1.24-4.36,2.7-5.75,4.73c-0.33,0.48-0.49,0.98-0.75,1.5
				c-0.18,0.36-0.38,0.56-0.76,0.94c-0.8,0.81-1.63,1.59-2.49,2.35c-3.4,3-7.24,5.45-11.33,7.4c-1.22,0.58-1.54,2.33-0.9,3.42
				C235.09,326.82,236.56,327.05,237.78,326.47L237.78,326.47z"/>
		</g>
	</g>
	<g>
		<g>
			<path class="st3" d="M258.05,301.41c0.03,2.05,0.11,5.17-2.08,6.22c0.42-0.11,0.84-0.23,1.26-0.34
				c-0.13-0.01-0.26-0.01-0.39-0.02c0.59,0.24,1.18,0.49,1.77,0.73c-0.06-0.06-0.13-0.11-0.19-0.17c0.21,0.37,0.43,0.74,0.64,1.1
				c-0.03,0.09-0.05,0.18-0.06,0.28c0.1-0.17,0.2-0.33,0.3-0.49c0.25-0.35,0.56-0.69,0.84-1.02c0.67-0.78,1.37-1.54,2.09-2.27
				c1.4-1.41,2.91-2.72,4.51-3.9c-1.14-0.3-2.28-0.6-3.42-0.9c0.03,0.07,0.06,0.15,0.09,0.22c-0.08-0.64-0.17-1.28-0.25-1.93
				c-0.31,1.12-1.15,2.28-1.76,3.26c-0.64,1.03-1.34,2.03-2.11,2.97c-1.63,1.99-3.5,3.81-5.57,5.33c-1.92,1.41-1.39,4.62,1.26,4.66
				c-0.19-0.07-0.15-0.05,0.13,0.06c-0.37-0.21-0.74-0.43-1.1-0.64c0.06,0.05,0.12,0.1,0.17,0.16c-0.21-0.37-0.43-0.74-0.64-1.1
				c0.02,0.08,0.05,0.15,0.07,0.23c0-0.44,0-0.89,0-1.33c-0.03,0.09-0.06,0.18-0.09,0.27c0.21-0.37,0.43-0.74,0.64-1.1
				c-0.39,0.38-0.71-0.21-0.13,0.69c0.07,0.48,0.13,0.56,0.19,0.26c0.06-0.16,0.1-0.32,0.11-0.49c0.11-0.57,0.05-1.07-0.06-1.64
				c-0.31-1.64-2.36-2.22-3.67-1.49c-2.91,1.6-5.82,3.21-8.73,4.81c-2.48,1.36-4.98,2.79-6.85,4.96c-0.88,1.02-1,2.53,0,3.54
				c0.9,0.9,2.65,1.03,3.54,0c1.71-1.98,4-3.17,6.27-4.41c2.77-1.53,5.54-3.05,8.31-4.58c-1.22-0.5-2.45-1-3.67-1.49
				c0.02,0.1,0.04,0.21,0.06,0.31c0-0.44,0-0.89,0-1.33c-0.32,1.77-0.55,3.24,0.84,4.67c1.24,1.28,3.12,1.52,4.77,1.1
				c1.64-0.42,3.39-1.5,3.39-3.4c0-1.95-1.79-3-3.54-3.03c0.42,1.55,0.84,3.11,1.26,4.66c2.81-2.06,5.29-4.41,7.42-7.17
				c1.02-1.33,1.97-2.7,2.79-4.16c0.4-0.71,0.78-1.44,1.12-2.18c0.55-1.19,0.59-1.97,0.07-3.2c-0.49-1.16-2.43-1.62-3.42-0.9
				c-2.25,1.65-4.37,3.44-6.29,5.47c-1.74,1.84-4.58,4.5-3.8,7.32c0.45,1.61,2.11,2.63,3.76,2.18c1.34-0.37,2.45-1.53,3.24-2.62
				c1.7-2.36,1.96-5.35,1.92-8.17C263,298.19,258,298.18,258.05,301.41L258.05,301.41z"/>
		</g>
	</g>
	<g>
		<g>
			<path class="st4" d="M199.71,329.27c1.21,3.19,2.33,6.42,3.37,9.67c0.4,1.24,1.76,2.17,3.08,1.75c1.25-0.4,2.17-1.74,1.75-3.08
				c-1.04-3.25-2.16-6.48-3.37-9.67c-0.24-0.62-0.55-1.15-1.15-1.49c-0.54-0.31-1.33-0.45-1.93-0.25
				C200.27,326.58,199.22,327.96,199.71,329.27L199.71,329.27z"/>
		</g>
	</g>
	<g>
		<g>
			<path class="st4" d="M209.15,338.48c3.22,0,3.22-5,0-5C205.93,333.48,205.93,338.48,209.15,338.48L209.15,338.48z"/>
		</g>
	</g>
	<g>
		<g>
			<path class="st4" d="M209.21,338.21c3.22,0,3.22-5,0-5C205.99,333.21,205.99,338.21,209.21,338.21L209.21,338.21z"/>
		</g>
	</g>
	<g>
		<g>
			<path class="st4" d="M209.31,338.86c3.22,0,3.22-5,0-5C206.09,333.86,206.09,338.86,209.31,338.86L209.31,338.86z"/>
		</g>
	</g>
	<g>
		<g>
			<path class="st4" d="M209.33,337.56c3.22,0,3.22-5,0-5C206.11,332.56,206.1,337.56,209.33,337.56L209.33,337.56z"/>
		</g>
	</g>
	<g>
		<g>
			<path class="st4" d="M209.45,336.21c3.22,0,3.22-5,0-5C206.24,331.21,206.23,336.21,209.45,336.21L209.45,336.21z"/>
		</g>
	</g>
	<g>
		<g>
			<path class="st4" d="M209.15,334.58c3.22,0,3.22-5,0-5C205.93,329.58,205.93,334.58,209.15,334.58L209.15,334.58z"/>
		</g>
	</g>
	<g>
		<g>
			<path class="st4" d="M209.32,334.47c3.22,0,3.22-5,0-5C206.1,329.47,206.09,334.47,209.32,334.47L209.32,334.47z"/>
		</g>
	</g>
	<g>
		<g>
			<path class="st4" d="M210.82,331.67c3.22,0,3.22-5,0-5C207.6,326.67,207.6,331.67,210.82,331.67L210.82,331.67z"/>
		</g>
	</g>
	<g>
		<g>
			<path class="st4" d="M210.05,332.48c3.22,0,3.22-5,0-5C206.83,327.48,206.83,332.48,210.05,332.48L210.05,332.48z"/>
		</g>
	</g>
	<g>
		<g>
			<path class="st4" d="M211.86,331.09c3.22,0,3.22-5,0-5C208.64,326.09,208.63,331.09,211.86,331.09L211.86,331.09z"/>
		</g>
	</g>
	<g>
		<g>
			<path class="st4" d="M206.69,330.43c-5.16,0.87-10.33,1.73-15.49,2.6c-2.47,0.42-2.29,4.28,0,4.82c2.9,0.69,5.81,1.37,8.71,2.06
				c1.21,0.28,2.48-0.27,2.95-1.45c0.42-1.04,0.13-2.62-1.02-3.12c-0.85-0.37-1.69-0.7-2.6-0.92c0.5,1.22,1,2.45,1.49,3.67
				c-0.75,0.12-1.5,0.24-2.25,0.35c0.37-1.39,0.74-2.79,1.1-4.18c-1.4,0.5-2.77,1.1-4.08,1.83c-1.1,0.62-2.17,1.36-3.35,1.82
				c-2.69,1.07-4.92-0.61-7.05-2.17c0.3,0.3,0.6,0.6,0.9,0.9c-0.03-0.04-0.07-0.09-0.1-0.13c0,0.84,0,1.68,0,2.52
				c0.04-0.05,0.07-0.1,0.11-0.16c-0.3,0.3-0.6,0.6-0.9,0.9c1.39-0.98,2.87-1.85,4.46-2.47c1.29-0.5,3.19-1.33,4.59-1.15
				c-0.42-0.11-0.84-0.23-1.26-0.34c0.07,0.03,0.14,0.07,0.21,0.1c-0.3-0.3-0.6-0.6-0.9-0.9c0.04,0.06,0.07,0.13,0.11,0.19
				c0.5-1.22,1-2.45,1.49-3.67c-5.66,1.8-11.48,3.08-17.38,3.73c-3.2,0.35-3.23,4.68,0,5c4,0.39,7.95,1.08,11.85,2.03
				c1.09,0.26,2.24-0.18,2.82-1.15c1.18-1.96-0.23-3.46-1.68-4.3c0.3,0.3,0.6,0.6,0.9,0.9c-0.04-0.08-0.07-0.16-0.11-0.23
				c0.08,0.64,0.17,1.28,0.25,1.93c0.03-0.08,0.06-0.16,0.09-0.24c-0.21,0.37-0.43,0.74-0.64,1.1c1.2-1.11,3.76-2.23,5.39-2.04
				c-0.42-0.11-0.84-0.23-1.26-0.34c-0.05-0.04-0.09-0.07-0.14-0.11c0.37-1.39,0.74-2.79,1.1-4.18c-0.48,0.16-0.94,0.09-1.44,0.12
				c-0.75,0.05-1.46,0.2-2.16,0.47c-1.29,0.5-2.52,1.13-3.82,1.6c-1.23,0.45-2.49,0.84-3.76,1.16c-0.67,0.17-1.35,0.33-2.03,0.46
				c-0.38,0.08-0.76,0.14-1.14,0.21c-0.15,0.03-0.3,0.05-0.46,0.07c-0.39,0.05-0.3,0.06,0.25,0.05c0.5,0.38,1,0.77,1.49,1.15
				c0.11,0.34,0.13,0.35,0.05,0.01c-0.04-0.24-0.09-0.49-0.13-0.73c-0.07-0.41-0.14-0.82-0.21-1.22c-0.15-0.9-0.28-1.8-0.41-2.7
				c-0.19-1.34-1.89-2.07-3.08-1.75c-1.44,0.4-1.94,1.73-1.75,3.08c0.16,1.15,0.34,2.29,0.53,3.43c0.18,1.05,0.26,2.12,1.05,2.91
				c1.57,1.57,4.61,0.45,6.46,0.01c2.1-0.5,4.16-1.17,6.15-2c0.94-0.39,1.95-1.06,2.95-1.22c0.92-0.15,1.83,0,2.75-0.3
				c1.91-0.63,2.29-2.69,1.1-4.18c-1.82-2.28-6.2-0.4-8.25,0.62c-1.22,0.61-2.72,1.42-3.33,2.68c-0.41,0.84-0.37,1.76,0.09,2.58
				c0.46,0.81,1.19,1.04,1.74,1.44c-0.3-0.3-0.6-0.6-0.9-0.9c0.04,0.09,0.08,0.17,0.12,0.26c0-0.84,0-1.68,0-2.52
				c-0.04,0.06-0.08,0.13-0.12,0.19c0.94-0.38,1.88-0.77,2.82-1.15c-4.34-1.05-8.74-1.77-13.18-2.2c0,1.67,0,3.33,0,5
				c6.36-0.69,12.62-1.96,18.71-3.91c1.54-0.49,2.32-2.23,1.49-3.67c-1.55-2.69-5.51-1.24-7.8-0.43c-2.38,0.84-5.76,2.11-7.26,4.26
				c-0.46,0.66-0.49,1.87,0,2.52c1.07,1.43,2.94,2.45,4.53,3.22c1.73,0.84,3.47,1.24,5.39,0.96c3.48-0.5,6.16-2.98,9.4-4.14
				c1.75-0.63,2.48-2.76,1.1-4.18c-1.69-1.74-4.32-1.26-5.6,0.66c-0.88,1.32-0.01,3.31,1.49,3.67c0.47,0.11,0.96,0.22,1.4,0.41
				c0.64-1.52,1.28-3.05,1.93-4.57c-2.9-0.69-5.81-1.37-8.71-2.06c0,1.61,0,3.21,0,4.82c5.16-0.87,10.32-1.73,15.49-2.6
				c1.33-0.22,2.08-1.87,1.75-3.08C209.38,330.76,208.03,330.2,206.69,330.43L206.69,330.43z"/>
		</g>
	</g>
	<g>
		<g>
			<path class="st4" d="M157.78,332.61c3.22,0,3.22-5,0-5C154.56,327.61,154.55,332.61,157.78,332.61L157.78,332.61z"/>
		</g>
	</g>
	<g>
		<g>
			<path class="st4" d="M158.47,337.06c3.22,0,3.22-5,0-5C155.26,332.06,155.25,337.06,158.47,337.06L158.47,337.06z"/>
		</g>
	</g>
	<g>
		<g>
			<path class="st4" d="M158.46,334.35c3.22,0,3.22-5,0-5C155.24,329.35,155.23,334.35,158.46,334.35L158.46,334.35z"/>
		</g>
	</g>
	<g>
		<g>
			<path class="st4" d="M158.71,335.55c3.22,0,3.22-5,0-5C155.49,330.55,155.49,335.55,158.71,335.55L158.71,335.55z"/>
		</g>
	</g>
	<g>
		<g>
			<path class="st4" d="M158.66,335.55c3.22,0,3.22-5,0-5C155.44,330.55,155.43,335.55,158.66,335.55L158.66,335.55z"/>
		</g>
	</g>
	<g>
		<g>
			<path class="st4" d="M161.52,335.6c4.59,0.84,9.17,1.73,13.74,2.66c2.32,0.47,4.78,1.27,7.15,1.35c2.03,0.07,5.02-0.9,5.09-3.35
				c0.07-2.45-2.27-3.49-4.33-3.72c-1.14-0.13-2.3-0.16-3.45-0.13c-1.16,0.03-2.58-0.03-3.62,0.58c-0.6,0.35-0.62,0.77-1.03,1.2
				c0.6-0.63-0.87,0.26-1.05,0.35c-0.96,0.48-1.93,0.95-2.91,1.41c-0.91,0.43-1.82,0.87-2.76,1.25c-0.56,0.23-1.13,0.44-1.7,0.62
				c-0.28,0.09-0.56,0.17-0.84,0.24c-0.48,0.03-0.57,0.08-0.27,0.13c0.37,0.21,0.74,0.43,1.1,0.64c-0.05-0.07-0.11-0.14-0.16-0.21
				c0.24,0.59,0.49,1.18,0.73,1.77c0-0.09,0.01-0.19,0.01-0.28c-0.11,0.42-0.23,0.84-0.34,1.26c0.05-0.08,0.1-0.16,0.15-0.24
				c-0.3,0.3-0.6,0.6-0.9,0.9c-0.19,0.11,0.32-0.04,0.39-0.06c0.32-0.06,0.64-0.15,0.95-0.25c0.67-0.23,1.45-0.51,1.96-1.03
				c1.41-1.41,0.69-3.29-0.67-4.38c-2.21-1.78-4.77-3.04-7.55-3.61c-2.81-0.58-4.29,2.95-1.93,4.57c0.43,0.29,0.81,0.67,1.11,1.1
				c0.77,1.11,2.19,1.62,3.42,0.9c1.1-0.64,1.67-2.31,0.9-3.42c-0.81-1.17-1.73-2.09-2.91-2.89c-0.64,1.52-1.28,3.05-1.93,4.57
				c1.09,0.22,2.17,0.52,3.17,1.01c0.48,0.24,0.94,0.5,1.39,0.78c0.25,0.16,1.02,0.55,1.14,0.74c0-0.84,0-1.68,0-2.52
				c-0.02,0.04-0.04,0.09-0.07,0.13c0.3-0.3,0.6-0.6,0.9-0.9c-0.67,0.42-1.54,0.37-2.26,0.67c-1.2,0.51-1.98,1.62-1.94,2.95
				c0.1,3.12,3.61,2.92,5.76,2.25c2.1-0.65,4.1-1.63,6.08-2.57c1.8-0.86,4.61-1.69,5.46-3.66c-0.5,0.38-1,0.77-1.49,1.15
				c0.89-0.31,2.13-0.17,3.08-0.15c0.54,0.01,1.08,0.03,1.61,0.09c0.84,0.09,0.31,0.12,0.12-0.24c-0.11-0.42-0.23-0.84-0.34-1.26
				c0,0.09,0.01,0.18,0.01,0.27c0.24-0.59,0.49-1.18,0.73-1.77c-0.14,0.15-0.12,0.16,0.06,0.03c-0.12,0.03-0.24,0.07-0.36,0.1
				c-0.25,0-0.5,0-0.74-0.02c-0.92-0.11-1.86-0.38-2.77-0.57c-1.81-0.38-3.62-0.75-5.44-1.11c-3.71-0.74-7.42-1.45-11.14-2.14
				c-1.33-0.24-2.7,0.36-3.08,1.75C159.44,333.74,160.18,335.36,161.52,335.6L161.52,335.6z"/>
		</g>
	</g>
	<g>
		<g>
			<path class="st5" d="M126.82,320.95c3.22,0,3.22-5,0-5C123.6,315.95,123.59,320.95,126.82,320.95L126.82,320.95z"/>
		</g>
	</g>
	<g>
		<g>
			<path class="st5" d="M126.67,323.66c3.22,0,3.22-5,0-5C123.45,318.66,123.45,323.66,126.67,323.66L126.67,323.66z"/>
		</g>
	</g>
	<g>
		<g>
			<path class="st5" d="M128.81,321.9c3.22,0,3.22-5,0-5C125.59,316.9,125.59,321.9,128.81,321.9L128.81,321.9z"/>
		</g>
	</g>
	<g>
		<g>
			<path class="st5" d="M128.48,322.38c3.22,0,3.22-5,0-5C125.26,317.38,125.26,322.38,128.48,322.38L128.48,322.38z"/>
		</g>
	</g>
	<g>
		<g>
			<path class="st5" d="M128.04,322.81c3.22,0,3.22-5,0-5C124.82,317.81,124.82,322.81,128.04,322.81L128.04,322.81z"/>
		</g>
	</g>
	<g>
		<g>
			<path class="st5" d="M131.52,321.77c3.22,0,3.22-5,0-5C128.31,316.77,128.3,321.77,131.52,321.77L131.52,321.77z"/>
		</g>
	</g>
	<g>
		<g>
			<path class="st5" d="M133.53,321.75c3.22,0,3.22-5,0-5C130.31,316.75,130.31,321.75,133.53,321.75L133.53,321.75z"/>
		</g>
	</g>
	<g>
		<g>
			<path class="st5" d="M135.1,321.66c3.22,0,3.22-5,0-5C131.89,316.66,131.88,321.66,135.1,321.66L135.1,321.66z"/>
		</g>
	</g>
	<g>
		<g>
			<path class="st5" d="M135,316.69c-1.16-0.08-2.32-0.1-3.46,0.2c-0.33,0.08-0.61,0.23-0.85,0.45c-0.27,0.18-0.49,0.41-0.64,0.7
				c-0.18,0.29-0.28,0.6-0.3,0.93c-0.07,0.33-0.06,0.66,0.04,1c0.2,0.6,0.57,1.19,1.15,1.49c0.6,0.32,1.26,0.43,1.93,0.25
				c0.19-0.05,0.38-0.09,0.57-0.11c-0.22,0.03-0.44,0.06-0.66,0.09c0.74-0.1,1.48-0.05,2.22,0c0.34,0.01,0.67-0.06,0.96-0.22
				c0.31-0.1,0.58-0.27,0.8-0.52c0.24-0.23,0.42-0.49,0.52-0.8c0.16-0.3,0.23-0.62,0.22-0.96c-0.03-0.65-0.24-1.32-0.73-1.77
				c-0.17-0.13-0.34-0.26-0.51-0.39C135.87,316.8,135.45,316.69,135,316.69L135,316.69z"/>
		</g>
	</g>
	<g>
		<g>
			<path class="st5" d="M130.06,321.92c3.22,0,3.22-5,0-5C126.84,316.92,126.83,321.92,130.06,321.92L130.06,321.92z"/>
		</g>
	</g>
	<g>
		<g>
			<path class="st5" d="M129.68,322.07c1.33-0.13,2.67-0.23,4-0.29c1.28-0.06,2.61-0.16,3.89-0.03c-0.22-0.03-0.44-0.06-0.66-0.09
				c0.13,0.02,0.25,0.04,0.38,0.07c0.17,0.04,0.51,0.2-0.1-0.07c0.63,0.28,1.23,0.44,1.93,0.25c0.58-0.16,1.21-0.61,1.49-1.15
				c0.58-1.09,0.38-2.85-0.9-3.42c-1-0.45-1.97-0.62-3.06-0.63c-0.76,0-1.51,0.01-2.27,0.04c-1.57,0.05-3.14,0.16-4.7,0.32
				c-0.68,0.07-1.27,0.23-1.77,0.73c-0.43,0.43-0.76,1.15-0.73,1.77C127.23,320.81,128.29,322.21,129.68,322.07L129.68,322.07z"/>
		</g>
	</g>
	<g>
		<g>
			<path class="st5" d="M130.98,320.79c0.01-0.04,0.02-0.07,0.03-0.11c-0.08,0.2-0.17,0.4-0.25,0.6c0.02-0.03,0.04-0.06,0.06-0.1
				c-0.13,0.17-0.26,0.34-0.39,0.51c0.05-0.06,0.1-0.11,0.16-0.15c-0.17,0.13-0.34,0.26-0.51,0.39c0.03-0.02,0.07-0.04,0.1-0.06
				c-0.2,0.08-0.4,0.17-0.6,0.25c0.08-0.04,0.16-0.06,0.24-0.07c-0.22,0.03-0.44,0.06-0.66,0.09c0.59-0.07,1.22,0.03,1.81,0.06
				c0.61,0.03,1.22,0.06,1.83,0.08c1.25,0.05,2.49,0.09,3.74,0.11c1.31,0.02,2.56-1.17,2.5-2.5c-0.06-1.37-1.1-2.47-2.5-2.5
				c-1.56-0.03-3.13-0.08-4.69-0.15c-0.76-0.04-1.52-0.1-2.28-0.12c-1.57-0.04-2.92,0.82-3.41,2.34c-0.4,1.25,0.47,2.78,1.75,3.08
				C129.27,322.84,130.55,322.12,130.98,320.79L130.98,320.79z"/>
		</g>
	</g>
	<g>
		<g>
			<path class="st5" d="M120.53,322.27c2.59-2.97,5.49-5.62,8.73-7.87c-1.01-1.31-2.02-2.62-3.03-3.93
				c-2.65,3.09-6.4,5.02-7.53,9.22c-0.64,2.39,2.41,4.22,4.18,2.43c1.82-1.85,3.44-3.89,4.85-6.08c1.11-1.73-0.77-4.48-2.82-3.67
				c-1.72,0.68-2.39,1.86-2.96,3.55c-0.54,1.61-1.06,3.22-1.58,4.84c1.22-0.5,2.45-1,3.67-1.49c-1.14-0.79-1.98-3.05-2.11-4.38
				c-0.05-0.56,0.12-0.58,0.58-1.03c0.71-0.69,1.37-1.35,1.95-2.17c1.66-2.36-1.96-5-3.93-3.03c-3.3,3.3-6.79,6.41-10.5,9.25
				c1.22,0.5,2.45,1,3.67,1.49c0.05,0.12-0.2,0.4,0.01,0.18c0.19-0.2,0.34-0.5,0.5-0.73c0.43-0.61,0.86-1.21,1.29-1.81
				c0.81-1.14,1.62-2.28,2.43-3.42c1.62-2.28,3.24-4.56,4.86-6.84c0.71-1,0.27-2.54-0.64-3.23c-1.08-0.81-2.27-0.59-3.28,0.2
				c-3.32,2.58-6.64,5.16-9.97,7.74c1.39,0.37,2.79,0.74,4.18,1.1c-0.02-0.11-0.04-0.22-0.05-0.33c0,0.44,0,0.89,0,1.33
				c0.08-0.33,0.55-0.7,0.76-0.96c0.46-0.57,0.92-1.13,1.39-1.7c0.87-1.07,1.75-2.14,2.62-3.21c1.75-2.14,3.49-4.28,5.24-6.42
				c0.79-0.96,1.02-2.25,0.2-3.28c-0.7-0.88-2.22-1.41-3.23-0.64c-5.85,4.42-11.71,8.85-17.56,13.27c1.14,1.14,2.28,2.28,3.42,3.42
				c3.21-4.72,6.91-9.05,10.61-13.39c0.81-0.94,1.01-2.26,0.2-3.28c-0.71-0.89-2.2-1.39-3.23-0.64
				c-6.54,4.77-12.85,9.84-19.14,14.93c1.39,0.81,2.79,1.62,4.18,2.43c1.43-3.67,3.46-7.08,5.54-10.41c1.99-3.19,3.9-6.54,6.65-9.14
				c-1.18,0-2.36,0-3.54,0c0.06,0.07,0.13,0.14,0.19,0.21c-0.21-0.37-0.43-0.74-0.64-1.1c-0.09-0.21,0.1-0.29-0.15,0.24
				c-0.31,0.66-0.63,1.32-0.94,1.98c-0.59,1.25-1.19,2.5-1.78,3.74c-1.19,2.5-2.38,4.99-3.56,7.49c-1.37,2.88,2.57,5.27,4.32,2.52
				c3.25-5.1,9.28-7.76,13.88-11.45c1.42-1.14,0.66-3.87-1.1-4.18c-2.09-0.37-3.94,0.29-5.93,0.84c-1.95,0.54-3.9,1.05-5.85,1.54
				c-3.92,0.98-7.85,1.87-11.81,2.66c0.94,1.22,1.88,2.45,2.82,3.67c3.41-5.17,7.12-10.12,11.16-14.82
				c2.07-2.42-1.22-5.83-3.54-3.54c-4,3.96-7.98,7.93-11.56,12.27c-1.78,2.17,0.4,5.25,3.03,3.93c4.05-2.04,8.26-3.64,12.62-4.85
				c-0.64-1.52-1.28-3.05-1.93-4.57c-3.48,2.43-6.96,4.86-10.43,7.29c1.22,0.5,2.45,1,3.67,1.49c-0.27-1.14,0.4-2.5,0.76-3.57
				c0.47-1.42,0.98-2.82,1.52-4.22c1.03-2.66,2.18-5.28,3.32-7.89c1.3-2.98-2.35-5.08-4.32-2.52c-1.76,2.29-4.03,4.13-6.53,5.54
				c1.25,0.72,2.51,1.44,3.76,2.16c0,0.19-0.85,0.69-0.09,0.34c1.43-0.67,1.62-2.92,0.51-3.93c-0.66-0.59-1.34-0.95-2.22-1.08
				c-0.3-0.04-0.67-0.11-0.98-0.07c-0.66,0.09,0.11-0.23,0.51,0.54c0.11,0.42,0.23,0.84,0.34,1.26c-0.01-0.08-0.02-0.17-0.02-0.25
				c-0.41,0.72-0.83,1.44-1.24,2.16c0.02-0.01,0.47-0.09,0.57,0.04c0.72-1.25,1.44-2.51,2.16-3.76c-2.17-0.2-4.03,1.44-4.54,3.47
				c-0.54,2.13,0.31,4.18,1.63,5.82c1.18-1.18,2.36-2.36,3.54-3.54c-1.31-1.25-3.24-2.86-3.46-4.8c-0.15-1.34-1.04-2.5-2.5-2.5
				c-1.24,0-2.65,1.15-2.5,2.5c0.38,3.5,2.45,5.98,4.92,8.33c0.98,0.93,2.56,0.97,3.54,0c1.04-1.04,0.85-2.48,0-3.54
				c-0.2-0.25-0.16-0.72-0.32-0.92c0.28,0.34-0.18-0.63-0.05-0.11c0.01,0.05-0.36,0.27-0.25,0.28c1.8,0.17,3.23-2.28,2.16-3.76
				c-1.76-2.42-4.71-3.24-7.41-1.84c-0.72,0.37-1.32,1.34-1.24,2.16c0.12,1.27,0.62,2.3,1.78,2.93c0.57,0.3,1.17,0.45,1.8,0.5
				c0.2,0.02,0.4,0.03,0.59,0.02c0.56,0.05,0.45-0.05-0.34-0.31c0.17-1.31,0.34-2.62,0.51-3.93c-1.54,0.72-2.4,2.32-2.39,3.98
				c0.01,1.91,2.11,3.09,3.76,2.16c3.29-1.85,6.03-4.35,8.32-7.33c-1.44-0.84-2.88-1.68-4.32-2.52c-1.38,3.16-2.76,6.31-4,9.53
				c-1.18,3.07-2.9,6.66-2.11,10.01c0.35,1.48,2.37,2.41,3.67,1.49c3.48-2.43,6.96-4.86,10.43-7.29c2.23-1.56,0.95-5.37-1.93-4.57
				c-4.77,1.32-9.39,3.13-13.82,5.36c1.01,1.31,2.02,2.62,3.03,3.93c3.57-4.35,7.56-8.32,11.56-12.27
				c-1.18-1.18-2.36-2.36-3.54-3.54c-4.31,5.02-8.3,10.31-11.94,15.83c-1.29,1.95,0.83,4.08,2.82,3.67
				c3.64-0.74,7.26-1.54,10.87-2.43c1.72-0.42,3.44-0.87,5.16-1.33c0.94-0.25,1.87-0.51,2.8-0.77c0.59-0.17,1.48-0.63,2.11-0.52
				c-0.37-1.39-0.74-2.79-1.1-4.18c-5.06,4.05-11.07,6.82-14.66,12.46c1.44,0.84,2.88,1.68,4.32,2.52c1.5-3.16,3-6.31,4.51-9.47
				c1.27-2.68,4.08-6.41,1.6-9.15c-0.92-1.02-2.59-0.89-3.54,0c-3.06,2.89-5.22,6.61-7.43,10.15c-2.32,3.71-4.45,7.51-6.04,11.6
				c-0.4,1.02,0.26,2.31,1.15,2.82c1.03,0.6,2.16,0.31,3.03-0.39c5.96-4.82,11.93-9.63,18.13-14.15c-1.01-1.31-2.02-2.62-3.03-3.93
				c-3.98,4.65-7.95,9.33-11.39,14.4c-1.36,1.99,1.42,4.93,3.42,3.42c5.85-4.42,11.71-8.84,17.56-13.27
				c-1.01-1.31-2.02-2.62-3.03-3.93c-2.11,2.58-4.21,5.16-6.32,7.74c-1.03,1.26-2.06,2.52-3.08,3.78c-1.22,1.5-2.17,2.61-1.84,4.64
				c0.34,2.08,2.88,2.11,4.18,1.1c3.32-2.58,6.64-5.16,9.97-7.74c-1.31-1.01-2.62-2.02-3.93-3.03c-1.91,2.68-3.81,5.36-5.72,8.04
				c-0.91,1.27-1.81,2.55-2.72,3.82c-0.95,1.34-1.84,2.93-1.16,4.6c0.53,1.3,2.25,2.58,3.67,1.49c4.05-3.1,7.9-6.43,11.51-10.03
				c-1.31-1.01-2.62-2.02-3.93-3.03c-0.68,0.96-1.74,1.6-2.41,2.6c-0.9,1.35-0.99,2.91-0.62,4.45c0.69,2.87,1.92,5.65,4.4,7.37
				c1.39,0.96,3.21-0.07,3.67-1.49c0.36-1.1,0.71-2.2,1.08-3.3c0.22-0.67,0.4-1.81,0.81-2.14c-0.37,0.21-0.74,0.43-1.1,0.64
				c0.09-0.04,0.18-0.07,0.27-0.11c-0.94-1.22-1.88-2.45-2.82-3.67c-1.18,1.84-2.53,3.51-4.06,5.07c1.39,0.81,2.79,1.62,4.18,2.43
				c0.82-3.06,4.29-4.73,6.25-7.01c0.81-0.94,1.01-2.26,0.2-3.28c-0.72-0.91-2.18-1.37-3.23-0.64c-3.59,2.49-6.87,5.36-9.74,8.65
				c-0.89,1.02-1,2.54,0,3.54C117.9,323.17,119.63,323.29,120.53,322.27L120.53,322.27z"/>
		</g>
	</g>
	<g>
		<g>
			<path class="st5" d="M93.53,285.91c1.17-0.34,1.99-1.11,2.67-2.09c0.35-0.5,0.59-1.06,0.95-1.55c-0.13,0.17-0.26,0.34-0.39,0.51
				c0.13-0.17,0.28-0.33,0.45-0.46c-0.17,0.13-0.34,0.26-0.51,0.39c0.1-0.08,0.2-0.14,0.31-0.2c-0.2,0.08-0.4,0.17-0.6,0.25
				c0.05-0.02,0.1-0.03,0.15-0.03c-0.22,0.03-0.44,0.06-0.66,0.09c0.02,0,0.04,0,0.06,0c-0.22-0.03-0.44-0.06-0.66-0.09
				c0.04,0,0.07,0.01,0.11,0.03c-0.2-0.08-0.4-0.17-0.6-0.25c0.03,0.02,0.06,0.04,0.09,0.06c-0.17-0.13-0.34-0.26-0.51-0.39
				c0.03,0.02,0.06,0.05,0.08,0.08c-0.13-0.17-0.26-0.34-0.39-0.51c0.05,0.07,0.09,0.14,0.12,0.21c-0.08-0.2-0.17-0.4-0.25-0.6
				c0.12,0.28,0.17,0.58,0.25,0.87c0.09,0.34,0.19,0.67,0.29,1c0.21,0.67,0.45,1.32,0.7,1.97c0.08,0.33,0.23,0.61,0.45,0.85
				c0.18,0.27,0.41,0.49,0.7,0.64c0.54,0.31,1.33,0.45,1.93,0.25c0.6-0.2,1.19-0.57,1.49-1.15c0.29-0.56,0.5-1.31,0.25-1.93
				c-0.32-0.79-0.6-1.59-0.84-2.4c-0.11-0.38-0.21-0.76-0.31-1.14c-0.23-0.85-0.7-1.61-1.45-2.09c-0.92-0.59-2.18-0.56-3.09,0.03
				c-0.64,0.42-1.04,0.86-1.49,1.47c-0.4,0.55-0.66,1.18-1.08,1.72c0.13-0.17,0.26-0.34,0.39-0.51c-0.13,0.17-0.28,0.32-0.44,0.45
				c0.17-0.13,0.34-0.26,0.51-0.39c-0.13,0.1-0.26,0.18-0.41,0.25c0.2-0.08,0.4-0.17,0.6-0.25c-0.07,0.03-0.13,0.05-0.2,0.07
				c-0.61,0.18-1.17,0.6-1.49,1.15c-0.31,0.54-0.45,1.33-0.25,1.93c0.2,0.6,0.57,1.19,1.15,1.49
				C92.19,285.97,92.87,286.1,93.53,285.91L93.53,285.91z"/>
		</g>
	</g>
	<g>
		<g>
			<path class="st5" d="M94.66,285.43c0.39-0.39,0.77-0.78,1.16-1.17c0.24-0.23,0.42-0.49,0.52-0.8c0.16-0.3,0.23-0.62,0.22-0.96
				c0.01-0.34-0.06-0.67-0.22-0.96c-0.1-0.31-0.27-0.58-0.52-0.8c-0.17-0.13-0.34-0.26-0.51-0.39c-0.39-0.23-0.81-0.34-1.26-0.34
				c-0.22,0.03-0.44,0.06-0.66,0.09c-0.42,0.12-0.79,0.33-1.1,0.64c-0.39,0.39-0.77,0.78-1.16,1.17c-0.24,0.23-0.42,0.49-0.52,0.8
				c-0.16,0.3-0.23,0.62-0.22,0.96c-0.01,0.34,0.06,0.67,0.22,0.96c0.1,0.31,0.27,0.58,0.52,0.8c0.17,0.13,0.34,0.26,0.51,0.39
				c0.39,0.23,0.81,0.34,1.26,0.34c0.22-0.03,0.44-0.06,0.66-0.09C93.98,285.96,94.35,285.74,94.66,285.43L94.66,285.43z"/>
		</g>
	</g>
	<g>
		<g>
			<path class="st5" d="M94.37,285.05c0.06-0.01,0.12-0.03,0.18-0.06c0.2-0.08,0.41-0.17,0.61-0.26c0.01,0,0.01-0.01,0.02-0.01
				c0.01-0.01,0.03-0.01,0.04-0.02c0.03-0.01,0.05-0.03,0.08-0.05c0.2-0.13,0.43-0.33,0.58-0.44c0.02-0.02,0.05-0.04,0.07-0.06
				c0.02-0.02,0.05-0.04,0.07-0.07c0.01-0.01,0.02-0.02,0.03-0.04c0-0.01,0.01-0.01,0.01-0.02c0.13-0.17,0.27-0.35,0.4-0.52
				c0.18-0.29,0.28-0.6,0.3-0.93c0.07-0.33,0.06-0.66-0.04-1c-0.08-0.33-0.23-0.61-0.45-0.85c-0.18-0.27-0.41-0.49-0.7-0.64
				c-0.2-0.08-0.4-0.17-0.6-0.25c-0.44-0.12-0.89-0.12-1.33,0c-0.2,0.08-0.4,0.17-0.6,0.25c-0.38,0.22-0.67,0.52-0.9,0.9
				c0,0.01-0.01,0.01-0.01,0.02c0.13-0.17,0.26-0.34,0.39-0.51c-0.05,0.07-0.11,0.13-0.18,0.18c0.17-0.13,0.34-0.26,0.51-0.39
				c-0.07,0.05-0.15,0.1-0.23,0.13c0.2-0.08,0.4-0.17,0.6-0.25c-0.06,0.02-0.12,0.04-0.18,0.06c-0.33,0.08-0.61,0.23-0.85,0.45
				c-0.27,0.18-0.49,0.41-0.64,0.7c-0.18,0.29-0.28,0.6-0.3,0.93c-0.07,0.33-0.06,0.66,0.04,1c0.08,0.2,0.17,0.4,0.25,0.6
				c0.22,0.38,0.52,0.67,0.9,0.9c0.2,0.08,0.4,0.17,0.6,0.25C93.48,285.17,93.93,285.17,94.37,285.05L94.37,285.05z"/>
		</g>
	</g>
	<g>
		<g>
			<path class="st6" d="M83.05,262.02c0.62-0.16,1.24-0.32,1.88-0.4c-0.22,0.03-0.44,0.06-0.66,0.09c0.59-0.07,1.17-0.05,1.77,0.03
				c-0.22-0.03-0.44-0.06-0.66-0.09c1.25,0.17,2.52,0.52,3.78,0.36c0.69-0.09,1.26-0.22,1.77-0.73c0.43-0.43,0.76-1.15,0.73-1.77
				c-0.03-0.65-0.24-1.32-0.73-1.77c-0.45-0.42-1.13-0.81-1.77-0.73c-0.54,0.07-1.08,0.04-1.62-0.03c0.22,0.03,0.44,0.06,0.66,0.09
				c-1.07-0.15-2.14-0.41-3.23-0.4c-1.1,0.01-2.19,0.27-3.25,0.54c-1.27,0.33-2.16,1.8-1.75,3.08
				C80.39,261.58,81.69,262.37,83.05,262.02L83.05,262.02z"/>
		</g>
	</g>
	<g>
		<g>
			<path class="st6" d="M82.91,262.07c0.95-0.06,1.91-0.07,2.86-0.01c0.46,0.03,0.92,0.08,1.38,0.12c0.36,0.03-0.52-0.09-0.2-0.03
				c0.1,0.02,0.2,0.03,0.3,0.05c0.23,0.04,0.45,0.1,0.67,0.16c0.32,0.09-0.08-0.02-0.17-0.09c0.08,0.06,0.19,0.09,0.27,0.14
				c0.04,0.02,0.23,0.11,0.24,0.16c0-0.02-0.45-0.4-0.19-0.14c0.13,0.13,0.25,0.25,0.37,0.38c0.04,0.05,0.16,0.15,0.17,0.21
				c-0.01-0.05-0.35-0.47-0.14-0.18c0.55,0.75,1.07,1.56,1.79,2.16c0.53,0.43,1.06,0.73,1.77,0.73c0.61,0,1.35-0.27,1.77-0.73
				c0.84-0.92,1.08-2.65,0-3.54c-0.16-0.13-0.3-0.27-0.44-0.41c-0.08-0.08-0.15-0.17-0.22-0.25c-0.22-0.26,0.09,0.14,0.14,0.18
				c-0.15-0.11-0.25-0.35-0.36-0.5c-0.22-0.3-0.45-0.6-0.68-0.89c-0.74-0.95-1.7-1.6-2.83-2c-1.04-0.37-2.2-0.43-3.28-0.51
				c-1.07-0.08-2.14-0.08-3.21-0.01c-1.3,0.08-2.56,1.09-2.5,2.5C80.47,260.85,81.52,262.15,82.91,262.07L82.91,262.07z"/>
		</g>
	</g>
	<g>
		<g>
			<path class="st6" d="M81.8,258.11c2.56-0.44,5.08-1.05,7.57-1.83c2.21-0.69,2.28-3.3,0.6-4.57c-3.7-2.78-8.97-0.74-12.79,0.66
				c0.81,1.39,1.62,2.79,2.43,4.18c0.4-0.43,1.64-0.56,2.26-0.75c1.07-0.32,2.15-0.6,3.21-0.95c1.18-0.38,2.23-0.89,2.6-2.21
				c0.31-1.14-0.24-2.27-1.13-2.96c-3.12-2.45-7.35-3.14-11.21-3.18c0.22,1.64,0.44,3.27,0.66,4.91c3.29-0.74,6.6-1.37,9.93-1.91
				c2.52-0.4,2.24-4.23,0-4.82c-1.69-0.45-3.37-0.36-5.07,0.02c-1.44,0.32-2.85,0.92-4.32,1.05c0.22,1.64,0.44,3.27,0.66,4.91
				c1.96-0.71,3.94-1.35,5.94-1.91c1.87-0.52,4.01-0.74,5.66-1.83c1.64-1.07,1.58-3.23,0-4.32c-3.24-2.22-7.24-3.27-11.15-2.9
				c0,1.67,0,3.33,0,5c1.69-0.19,3.39-0.38,5.08-0.57c-0.22-1.64-0.44-3.27-0.66-4.91c-1.02,0.18-2.04,0.35-3.07,0.47
				c-0.47,0.06-0.94,0.11-1.41,0.15c-0.41,0.04-1.17,0.25-1.55,0.18c0.5,0.38,1,0.77,1.49,1.15c-0.03-0.07-0.06-0.14-0.09-0.21
				c0.08,0.64,0.17,1.28,0.25,1.93c0.03-0.08,0.06-0.16,0.09-0.25c-0.21,0.37-0.43,0.74-0.64,1.1c1.13-1.36,3.37-2.15,4.92-2.93
				c1.88-0.95,3.8-1.83,5.74-2.67c2.26-0.98,1.13-4.87-1.26-4.66c-3.86,0.35-7.72,0.68-11.6,0.74c0.22,1.64,0.44,3.27,0.66,4.91
				c5.03-1.63,10.2-2.75,15.47-3.25c2.18-0.21,3.27-2.57,1.77-4.27c-1.6-1.8-5-1.71-7.2-1.95c-2.68-0.3-5.36-0.59-8.04-0.89
				c0.59,1.42,1.18,2.85,1.77,4.27c-0.37,0.4,0.27,0.01,0.51-0.06c0.3-0.09,0.61-0.18,0.91-0.26c0.76-0.2,1.53-0.38,2.31-0.52
				c1.41-0.26,2.84-0.37,4.28-0.4c2.85-0.07,3.35-4.04,0.66-4.91c-1.49-0.48-2.99-0.96-4.48-1.45c-3.07-0.99-4.38,3.84-1.33,4.82
				c1.49,0.48,2.99,0.96,4.48,1.45c0.22-1.64,0.44-3.27,0.66-4.91c-2.04,0.05-4.07,0.27-6.07,0.67c-1.72,0.34-4.22,0.69-5.47,2.03
				c-1.58,1.7-0.35,4.03,1.77,4.27c2.19,0.24,4.38,0.48,6.58,0.73c1.03,0.11,2.07,0.21,3.1,0.35c0.4,0.05,0.79,0.11,1.18,0.19
				c0.31,0.06,0.61,0.12,0.91,0.19c0.42,0.13,0.4,0.1-0.07-0.08c0.59-1.42,1.18-2.85,1.77-4.27c-5.71,0.54-11.34,1.66-16.8,3.43
				c-2.61,0.85-2.25,4.95,0.66,4.91c3.88-0.05,7.74-0.39,11.6-0.74c-0.42-1.55-0.84-3.11-1.26-4.66c-2.01,0.87-3.99,1.79-5.94,2.78
				c-1.9,0.96-4.14,1.93-5.63,3.5c-0.91,0.96-1.18,2.31-0.52,3.49c0.69,1.23,1.94,1.45,3.24,1.35c2.34-0.18,4.67-0.49,6.99-0.9
				c2.74-0.49,2.14-5.22-0.66-4.91c-1.69,0.19-3.39,0.38-5.08,0.57c-1.34,0.15-2.5,1.04-2.5,2.5c0,1.25,1.15,2.63,2.5,2.5
				c3.14-0.3,6.03,0.43,8.63,2.22c0-1.44,0-2.88,0-4.32c-1.34,0.88-3.39,1.01-4.91,1.45c-1.85,0.53-3.69,1.13-5.5,1.79
				c-1.17,0.42-1.98,1.45-1.79,2.74c0.17,1.13,1.2,2.28,2.46,2.17c1.5-0.14,2.91-0.49,4.35-0.9c1.23-0.34,2.44-0.68,3.71-0.35
				c0-1.61,0-3.21,0-4.82c-3.33,0.53-6.64,1.17-9.93,1.91c-2.79,0.63-2.11,4.88,0.66,4.91c2.54,0.03,6.11,0.28,8.09,2.06
				c-0.21-0.37-0.43-0.74-0.64-1.1c0.02,0.06,0.05,0.13,0.07,0.19c0.08-0.64,0.17-1.28,0.25-1.93c-0.04,0.07-0.09,0.14-0.13,0.21
				c0.3-0.3,0.6-0.6,0.9-0.9c-2.45,1.08-5.86,0.88-7.8,2.98c-1.57,1.7-0.06,5.09,2.43,4.18c1.76-0.64,3.52-1.28,5.36-1.66
				c1.28-0.27,2.51-0.31,3.58,0.5c0.2-1.52,0.4-3.05,0.6-4.57c-2.48,0.78-5,1.39-7.57,1.83c-1.33,0.23-2.08,1.87-1.75,3.08
				C79.11,257.78,80.46,258.34,81.8,258.11L81.8,258.11z"/>
		</g>
	</g>
	<g>
		<g>
			<path class="st6" d="M79.78,226.43c1.01,0.06,2.01,0.15,3.02,0.26c0.37,0.04,0.79,0.09,0.99,0.12c0.25,0.03,0.5,0.07,0.75,0.11
				c0.1,0.02,0.2,0.03,0.3,0.05c0.28,0.06,0.25,0.05-0.08-0.05c-0.3-0.3-0.6-0.6-0.9-0.9c0.03,0.05,0.07,0.1,0.1,0.15
				c0.72-1.25,1.44-2.51,2.16-3.76c-5.66,0.29-11.24,1.48-16.49,3.61c-1,0.4-1.89,1.23-1.84,2.41c0.05,1.05,0.73,2.18,1.84,2.41
				c3.06,0.64,6.19,0.98,9.32,0.96c1.31-0.01,2.56-1.14,2.5-2.5c-0.06-1.35-1.1-2.51-2.5-2.5c-2.82,0.02-5.34-0.23-7.99-0.78
				c0,1.61,0,3.21,0,4.82c2.47-1,5.02-1.81,7.62-2.4c2.64-0.59,4.84-0.89,7.54-1.03c1.76-0.09,3.3-2.1,2.16-3.76
				c-1.08-1.58-2.7-1.6-4.43-1.82c-1.35-0.17-2.71-0.3-4.07-0.38c-1.31-0.08-2.56,1.21-2.5,2.5
				C77.35,225.35,78.38,226.34,79.78,226.43L79.78,226.43z"/>
		</g>
	</g>
	<g>
		<g>
			<path class="st6" d="M87.12,207.38c-0.79-0.57-1.8-0.83-2.77-0.88c-0.65-0.03-1.29,0.18-1.93,0.12c0.22,0.03,0.44,0.06,0.66,0.09
				c-0.03,0-0.06-0.01-0.09-0.02c0.2,0.08,0.4,0.17,0.6,0.25c-0.03-0.01-0.06-0.02-0.08-0.04c0.17,0.13,0.34,0.26,0.51,0.39
				c-0.01-0.01-0.02-0.02-0.03-0.03c0.13,0.17,0.26,0.34,0.39,0.51c-0.01-0.01-0.02-0.02-0.02-0.03c0.08,0.2,0.17,0.4,0.25,0.6
				c0-0.01-0.01-0.02-0.01-0.03c0.03,0.22,0.06,0.44,0.09,0.66c0-0.01,0-0.02,0-0.04c-0.03,0.22-0.06,0.44-0.09,0.66
				c0-0.01,0.01-0.02,0.01-0.04c-0.21,0.37-0.43,0.74-0.64,1.1c0.01-0.01,0.02-0.03,0.03-0.04c-0.17,0.13-0.34,0.26-0.51,0.39
				c0.03-0.02,0.06-0.04,0.1-0.05c-0.2,0.08-0.4,0.17-0.6,0.25c0.07-0.03,0.14-0.05,0.22-0.06c-0.22,0.03-0.44,0.06-0.66,0.09
				c0.1-0.01,0.19-0.01,0.28,0c-0.22-0.03-0.44-0.06-0.66-0.09c0.14,0.02,0.27,0.06,0.4,0.11c-0.2-0.08-0.4-0.17-0.6-0.25
				c0.33,0.14,0.62,0.36,0.95,0.52c0.32,0.16,0.67,0.33,1.03,0.41c0.64,0.14,1.1,0.12,1.74,0c0.33-0.08,0.61-0.23,0.85-0.45
				c0.27-0.18,0.49-0.41,0.64-0.7c0.18-0.29,0.28-0.6,0.3-0.93c0.07-0.33,0.06-0.66-0.04-1c-0.2-0.6-0.57-1.19-1.15-1.49
				c-0.2-0.08-0.4-0.17-0.6-0.25c-0.44-0.12-0.89-0.12-1.33,0c-0.02,0-0.04,0.01-0.06,0.01c0.22-0.03,0.44-0.06,0.66-0.09
				c-0.1,0.01-0.2,0.01-0.3,0c0.22,0.03,0.44,0.06,0.66,0.09c-0.12-0.02-0.23-0.06-0.35-0.1c0.2,0.08,0.4,0.17,0.6,0.25
				c-0.23-0.1-0.44-0.23-0.66-0.36c-0.36-0.22-0.77-0.4-1.17-0.53c-0.62-0.2-1.25-0.19-1.87-0.06c-0.06,0.01-0.11,0.02-0.16,0.04
				c-0.22,0.07-0.5,0.18-0.7,0.3c-0.2,0.11-0.42,0.3-0.58,0.46c-0.24,0.23-0.42,0.49-0.52,0.8c-0.05,0.11-0.1,0.22-0.14,0.34
				c-0.03,0.22-0.06,0.44-0.09,0.66c0,0.24,0.03,0.47,0.09,0.7c0.06,0.23,0.16,0.46,0.29,0.66c0.13,0.17,0.26,0.34,0.39,0.51
				c0.09,0.08,0.19,0.15,0.28,0.22c0.29,0.22,0.29,0.22,0.63,0.36c0.35,0.15,0.35,0.14,0.72,0.19c0.16,0.02,0.29,0.05,0.45,0.05
				c0.14,0,0.28-0.01,0.41-0.02c0.54-0.05,1.08-0.15,1.63-0.09c-0.22-0.03-0.44-0.06-0.66-0.09c0.24,0.03,0.47,0.1,0.7,0.19
				c-0.2-0.08-0.4-0.17-0.6-0.25c0.21,0.09,0.4,0.2,0.58,0.33c0.29,0.18,0.6,0.28,0.93,0.3c0.33,0.07,0.66,0.06,1-0.04
				c0.58-0.16,1.21-0.61,1.49-1.15c0.31-0.58,0.46-1.28,0.25-1.93c-0.08-0.2-0.17-0.4-0.25-0.6C87.79,207.9,87.5,207.6,87.12,207.38
				L87.12,207.38z"/>
		</g>
	</g>
	<g>
		<g>
			<path class="st6" d="M79.87,214.82c1.37,0.26,2.75,0.52,4.11,0.88c0.63,0.17,1.26,0.35,1.88,0.57c0.4,0.14,0.06,0.1-0.07-0.04
				c0.05,0.05,0.28,0.16,0.36,0.19c0.26,0.11-0.37-0.36-0.07-0.06c0.33,0.33-0.26-0.45-0.03,0c0.3-1.14,0.6-2.28,0.9-3.42
				c0.71-0.35,0.01,0.05-0.06-0.03c0.37-0.05,0.42-0.06,0.14-0.04c-0.09,0-0.18,0-0.27,0c-0.39,0-0.77-0.03-1.16-0.03
				c-0.89-0.01-1.78,0.05-2.66,0.15c-1.93,0.21-3.83,0.57-5.73,0.95c-1.22,0.24-1.94,1.6-1.79,2.74c0.17,1.27,1.2,2.09,2.46,2.17
				c0.77,0.05,1.54,0.12,2.31,0.21c0.49,0.06-0.24-0.04,0.07,0.01c0.17,0.03,0.35,0.05,0.52,0.08c0.38,0.06,0.76,0.13,1.14,0.21
				c0.72,0.14,1.44,0.31,2.16,0.5c0.34,0.09,0.68,0.19,1.01,0.29c0.2,0.06,0.4,0.12,0.6,0.19c0.07,0.02,0.13,0.04,0.2,0.07
				c0.45,0.17,0.29,0.05-0.48-0.36c-0.21-0.37-0.43-0.74-0.64-1.1c0.01,0.04,0.01,0.08,0.02,0.11c0.58-1.03,1.16-2.05,1.75-3.08
				c-3.75,0.55-7.39,1.88-10.64,3.83c-0.91,0.55-1.49,1.77-1.15,2.82c0.36,1.13,1.26,1.72,2.41,1.84c1.47,0.15,2.95,0.3,4.42,0.44
				c1.51,0.15,3.01,0.32,4.49-0.14c1.25-0.38,2.17-1.77,1.75-3.08c-0.41-1.26-1.74-2.16-3.08-1.75c-0.15,0.05-0.31,0.07-0.47,0.12
				c-0.28,0.09,0.47,0,0,0c-0.32,0-0.64,0.02-0.97,0c-0.65-0.04-1.3-0.12-1.94-0.18c-1.4-0.14-2.81-0.28-4.21-0.42
				c0.42,1.55,0.84,3.11,1.26,4.66c0.78-0.47,1.58-0.9,2.41-1.29c0.18-0.08,0.35-0.16,0.53-0.24c0.23-0.1,0.5-0.25,0.12-0.05
				c0.4-0.2,0.86-0.34,1.28-0.49c1.66-0.58,3.37-1,5.11-1.25c0.55-0.08,1.24-0.67,1.49-1.15c0.34-0.64,0.35-1.22,0.25-1.93
				c-0.21-1.56-1.93-2.01-3.18-2.39c-0.88-0.26-1.76-0.49-2.65-0.68c-1.93-0.41-3.91-0.67-5.89-0.79c0.22,1.64,0.44,3.27,0.66,4.91
				c0.91-0.18,1.82-0.36,2.74-0.52c0.21-0.04,0.42-0.07,0.63-0.11c0.07-0.01,0.85-0.13,0.51-0.08c-0.33,0.05,0.44-0.05,0.52-0.06
				c0.21-0.02,0.42-0.04,0.64-0.06c1.99-0.17,4.05,0.24,5.91-0.68c1.26-0.62,1.48-2.29,0.9-3.42c-0.86-1.68-2.76-2.31-4.46-2.79
				c-1.55-0.44-3.13-0.74-4.71-1.04c-1.28-0.24-2.76,0.36-3.08,1.75C77.85,212.98,78.5,214.56,79.87,214.82L79.87,214.82z"/>
		</g>
	</g>
	<g>
		<g>
			<path class="st6" d="M86.22,211.99c3.22,0,3.22-5,0-5C83,206.99,83,211.99,86.22,211.99L86.22,211.99z"/>
		</g>
	</g>
</g>
<g id="Layer_3">
	<g id="Layer_4">
	</g>
	<g>
		<line class="st10" x1="213.16" y1="134.94" x2="213.93" y2="80.08"/>
		<line class="st10" x1="152.65" y1="134.09" x2="153.42" y2="79.24"/>
		<line class="st10" x1="216.03" y1="82.54" x2="151.2" y2="81.63"/>
	</g>
	<g>
		<line class="st10" x1="277.8" y1="182.79" x2="315.3" y2="149.81"/>
		<line class="st10" x1="234.24" y1="139.3" x2="271.73" y2="106.33"/>
		<line class="st10" x1="315.17" y1="152.8" x2="268.5" y2="106.21"/>
	</g>
	<g>
		<line class="st10" x1="282.51" y1="264.91" x2="337.24" y2="268.37"/>
		<line class="st10" x1="287.13" y1="205.41" x2="341.85" y2="208.88"/>
		<line class="st10" x1="334.66" y1="270.32" x2="339.61" y2="206.57"/>
	</g>
	<g>
		<line class="st10" x1="228.79" y1="325.97" x2="261.07" y2="362.31"/>
		<line class="st10" x1="273.78" y1="286.17" x2="306.06" y2="322.5"/>
		<line class="st10" x1="258.06" y1="362.1" x2="306.26" y2="319.46"/>
	</g>
	<g>
		<line class="st10" x1="153.67" y1="332.62" x2="154.04" y2="387.49"/>
		<line class="st10" x1="214.18" y1="332.22" x2="214.55" y2="387.07"/>
		<line class="st10" x1="151.89" y1="385.07" x2="216.72" y2="384.64"/>
	</g>
	<g>
		<line class="st10" x1="83.92" y1="204.01" x2="29.07" y2="205.35"/>
		<line class="st10" x1="85.4" y1="264.51" x2="30.56" y2="265.84"/>
		<line class="st10" x1="31.45" y1="203.16" x2="33.03" y2="267.98"/>
	</g>
	<g>
		<line class="st10" x1="131.49" y1="141.66" x2="91.33" y2="104.28"/>
		<line class="st10" x1="90.26" y1="185.96" x2="50.11" y2="148.59"/>
		<line class="st10" x1="94.56" y1="104.38" x2="50.39" y2="151.84"/>
	</g>
	<line class="st10" x1="213.23" y1="130.09" x2="204.75" y2="174.71"/>
	<line class="st10" x1="277.8" y1="182.79" x2="235.97" y2="200.44"/>
	<line class="st10" x1="284.42" y1="265.03" x2="236.46" y2="251.67"/>
	<line class="st10" x1="230.49" y1="327.88" x2="209.88" y2="277.87"/>
	<line class="st10" x1="151.91" y1="333.54" x2="163.98" y2="279.16"/>
	<line class="st10" x1="91.1" y1="277.07" x2="137.25" y2="256.62"/>
	<line class="st10" x1="83.92" y1="204.01" x2="130.07" y2="213.83"/>
	<line class="st10" x1="133.6" y1="142.67" x2="152" y2="180.61"/>
</g>
<g id="Layer_7">
	<rect x="371.08" y="203.59" class="st11" width="582.07" height="324.43"/>
	<text transform="matrix(1 0 0 1 371.0791 258.784)" class="st12 st13 st14">Ibishelp</text>
</g>
</svg>
